<svg xmlns="http://www.w3.org/2000/svg" width="68.46mm" height="57.494mm" viewBox="0 0 68.4599 57.4942"><defs><linearGradient id="a" x1="324.89" x2="540.86" y1="324.78" y2="496.04" gradientUnits="userSpaceOnUse"><stop stop-color="#eeeb25" offset="0"/><stop stop-color="#c37113" offset="1"/></linearGradient></defs><path transform="translate(-82.029 -82.172) scale(.26458)" d="M401.56 323.07c-3.5 0-7.4062.0625-11.719.1875-13.75.375-22.969.5625-27.656.5625-6.375 0-12.312-.125-17.812-.375-3.3125-.1875-6.0312-.2813-8.1562-.2813-3.875 0-7.0625.875-9.5625 2.625-2.4375 1.75-3.6562 4-3.6562 6.75 0 3.375 2.0625 5.9375 6.1875 7.6875 3.5625 1.5625 5.8125 3.5625 6.75 6 1 2.375 1.5 7.2188 1.5 14.531 0 19.938-.5938 36.719-1.7812 50.344-.8125 8.75-1.5625 14.469-2.25 17.156-.6875 2.625-1.9375 4.5625-3.75 5.8125-3.125 2.125-5.0938 3.6875-5.9062 4.6875s-1.2188 2.375-1.2188 4.125c0 2.6875 1.0938 5 3.2812 6.9375 2.25 1.9375 5.2812 2.9062 9.0938 2.9062 1.5625 0 4.1562-.1562 7.7812-.4687 4.0625-.25 10.5-.4375 19.312-.5625l12.562-.0937c1.875.0625 6.9375.25 15.188.5625 9.0625.3125 14.75.4688 17.062.4688 1.2147 0 2.402-.032 3.5742-.082.6412 9.3518 3.142 18.138 7.5156 26.352 6.125 11.562 15.062 20.562 26.812 27 11.438 6.3124 24 9.4687 37.688 9.4687 8.375 0 16.344-1.2812 23.906-3.8438 7.625-2.5625 14.125-6.125 19.5-10.688 7.8125-6.6875 13.062-15 15.75-24.938.6875-2.5625 1.3438-4.1562 1.9688-4.7812.6875-.6875 2.125-1.1875 4.3125-1.5 2.5-.3125 4.5312-1.2812 6.0938-2.9062 1.5625-1.6875 2.3438-3.6562 2.3438-5.9062 0-5.5625-3.4062-9.4062-10.219-11.531-7.1875-2.1875-16.062-3.2812-26.625-3.2812-9.875 0-18.594 1.1875-26.156 3.5625-6.875 2.1875-10.312 5.875-10.312 11.062 0 2.625.875 4.8125 2.625 6.5625 1.8125 1.6875 4.0625 2.5312 6.75 2.5312 3 0 4.7812.0625 5.3438.1875.625.0625 1.2812.3438 1.9688.8438 1.75 1.25 2.625 3.375 2.625 6.375 0 3.375-1.0625 6.1562-3.1875 8.3438-2.0625 2.125-4.7188 3.1875-7.9688 3.1875-3.9375 0-7.9062-1.125-11.906-3.375-4-2.3125-7.4375-5.375-10.312-9.1875-7.625-10.5-11.438-23.219-11.438-38.156 0-10.062 2.375-18.062 7.125-24 4.8125-5.9375 11.281-8.9062 19.406-8.9062 8.9375 0 16.844 4.2188 23.719 12.656 4.125 5.0625 6.7188 8 7.7812 8.8125 3.5 2.625 7.0625 3.9375 10.688 3.9375 4.4375 0 8-1.6562 10.688-4.9688 2.75-3.3125 4.125-7.6562 4.125-13.031 0-7.875-2.5625-15.125-7.6875-21.75-3.1875-4.125-6.5312-6.1875-10.031-6.1875-1.375 0-2.7188.2187-4.0312.6562-4 1.4375-6.625 2.1562-7.875 2.1562-1.1875 0-3.4062-.5312-6.6562-1.5938-7.25-2.3125-14.969-3.4688-23.156-3.4688-13.062 0-24.688 2.625-34.875 7.875-.4228.2149-.834.4408-1.25.6622-3.3007-3.1024-6.8615-5.4247-10.684-6.963-2.625-1.0624-3.9375-2.375-3.9375-3.9374 0-1.4375 1.0938-3.0312 3.2812-4.7812 3.0625-2.4375 5.5-5.6875 7.3125-9.75 1.8125-4.125 2.7188-8.3438 2.7188-12.656 0-8.6875-3.0625-15.625-9.1875-20.812-3.75-3.1875-8.1875-5.4375-13.312-6.75-5.0625-1.375-11.75-2.0625-20.062-2.0625zm-14.719 18.375c4.125 0 7.3125 1.625 9.5625 4.875 2.25 3.1875 3.375 7.7188 3.375 13.594 0 6.0625-1.0938 10.531-3.2812 13.406-2.1875 2.8125-5.5938 4.2188-10.219 4.2188-1.9375 0-3.3125-.625-4.125-1.875-.75-1.25-1.125-3.4062-1.125-6.4688v-19.312c0-3.1875.4063-5.375 1.2188-6.5625.875-1.25 2.4062-1.875 4.5938-1.875zm1.5 54.188c10.625 0 15.938 6.9375 15.938 20.812 0 11.125-4.75 16.688-14.25 16.688-3.625 0-6.0312-1.3438-7.2188-4.0312s-1.7812-8.125-1.7812-16.312v-8.9062c0-3.125.5313-5.2812 1.5938-6.4688s2.9688-1.7812 5.7188-1.7812z" fill="url(#a)" stroke="#670000" stroke-width="25" paint-order="stroke fill markers"/></svg>
