<svg xmlns="http://www.w3.org/2000/svg" xmlns:xlink="http://www.w3.org/1999/xlink" width="675" height="329.3333" viewBox="0 0 675 329.3333"><defs><linearGradient id="b"><stop offset="0"/><stop offset="1" stop-color="#fff"/></linearGradient><linearGradient gradientTransform="translate(397.3435 -205.612) scale(.99998)" id="a" x1="324.89" x2="540.86" y1="324.78" y2="496.04" gradientUnits="userSpaceOnUse"><stop stop-color="#eeeb25" offset="0"/><stop stop-color="#c37113" offset="1"/></linearGradient><linearGradient xlink:href="#a" id="c" x1="284.1941" y1="264.916" x2="282.9798" y2="322.5139" gradientUnits="userSpaceOnUse" gradientTransform="translate(7.3843 -5.9075)"/><radialGradient xlink:href="#b" id="d" gradientUnits="userSpaceOnUse" gradientTransform="matrix(1.9435 .00382 -.00268 1.36 -598.135 -114.4106)" cx="642.6108" cy="295.1661" fx="642.6108" fy="295.1661" r="21.5787"/></defs><path d="M201.5926 287.2426c-3.7807.664-.9864-2.7111-1.477-3.6922-.1556-.3113-.5827-.427-.7383-.7384-.1101-.2202 0-.4923 0-.7384 0-.4923.1194-.9993 0-1.477-.1335-.5339-.6305-.937-.7385-1.4768-.1448-.724.1045-1.4843 0-2.2153-.287-2.0094-1.2527-3.8901-1.4768-5.9075-.1505-1.3538.1805-7.0397 0-8.1227-.256-1.5356-1.1269-2.9138-1.477-4.4307-.3372-1.4615-1.1395-8.138-1.4768-9.5996-.403-1.746-1.074-3.423-1.4768-5.169-.3367-1.459-.3753-2.9781-.7385-4.4306-.3775-1.5103-1.1984-2.899-1.4768-4.4306-.2202-1.211.2201-2.4813 0-3.6922-.2785-1.5317-1.0673-2.9287-1.477-4.4306-.3302-1.2109-.4922-2.4615-.7383-3.6922-.4923-1.2307-1.0577-2.4347-1.477-3.6922-.6002-1.8009-1.0866-4.89-1.4768-6.6459-.2201-.9907-.4596-1.9779-.7384-2.9537-.2139-.7484-.6284-1.4448-.7385-2.2153-.1392-.9747.1619-1.9826 0-2.9538-.0905-.5429-.534-.9658-.7384-1.4768-.289-.7227-.6105-1.4475-.7384-2.2153-1.3998-8.399 1.3736 2.644-.7385-3.6922-.1425-.4278 0-2.3138 0-2.9537v-5.9075c0-1.2307.2414-2.4854 0-3.6922-.1079-.5397-.6305-.9371-.7384-1.4769-.1448-.724 0-1.4768 0-2.2153v-5.169c0-.4923.0966-.9941 0-1.4769-.1526-.7632-.5858-1.452-.7384-2.2153-.4563-2.2812.6707-.8061-.7385-2.2153l4.4306-2.2153c.7385 0 1.5549.3303 2.2153 0 .9341-.467 1.3086-1.6972 2.2154-2.2153.8811-.5035 2.0209-.3386 2.9537-.7384.8157-.3496 1.4447-1.0366 2.2153-1.4769 10.7561-6.1464-3.1154 1.927 5.169-2.2153.7938-.3969 1.4215-1.08 2.2153-1.4768 4.2267-2.1134.466.4588 3.6922-1.477.761-.4565 1.4543-1.0202 2.2153-1.4768.472-.2832 1.005-.4552 1.4769-.7384 1.522-.9132 2.9086-2.0405 4.4306-2.9538.472-.2831 1.0877-.3492 1.4769-.7384 2.9065-2.9065.0307-1.5 2.9537-3.6922.4403-.3302 1.0877-.3492 1.4769-.7384 1.255-1.255 1.6986-3.1755 2.9537-4.4306.6275-.6276 1.5877-.8493 2.2153-1.4769.3892-.3892.4082-1.0365.7384-1.4768 3.4781-4.6375-.6604 2.3314 2.9538-3.6922.5663-.944.8164-2.0731 1.4768-2.9537.4178-.557 1.1656-.8542 1.4769-1.477.2202-.4402-.1557-1.0098 0-1.4768.11-.3302.5828-.427.7384-.7384.3481-.6962.3904-1.5191.7385-2.2153.1557-.3114.6283-.4082.7384-.7385.3114-.934-.2388-1.9985 0-2.9537.1335-.534.605-.9429.7384-1.4769.1194-.4776-.0966-.9941 0-1.4768.1527-.7633.6105-1.4475.7385-2.2153.1214-.7284 0-1.4769 0-2.2153v-13.2919c0-.7384.1448-1.4912 0-2.2153-.108-.5397-.534-.9658-.7385-1.4768-.289-.7227-.5857-1.452-.7384-2.2153-.4504-2.252.8678-1.0152-.7384-3.6922-.3582-.597-1.2183-.8305-1.4769-1.4769-.2742-.6856.2743-1.5297 0-2.2153-.2586-.6464-.9846-.9846-1.4769-1.4768-.2461-.2462-.6283-.4082-.7384-.7385-.1557-.467.1557-1.0098 0-1.4768-.11-.3303-.4923-.4923-.7384-.7385-4.5219-4.5218 1.2454.934-2.9538-2.2153-.557-.4177-.9332-1.042-1.4768-1.4769-.693-.5544-1.477-.9845-2.2153-1.4768-.7385-.4923-1.4448-1.0366-2.2153-1.4769-7.3834-4.219 1.3612.8999-5.9075-2.2153-.8157-.3496-1.4215-1.08-2.2153-1.4769-.6962-.348-1.4999-.4318-2.2153-.7384-1.0118-.4336-1.923-1.0903-2.9538-1.4769-.9502-.3563-2.0034-.382-2.9537-.7384-1.0307-.3865-1.942-1.0432-2.9537-1.4769-.7155-.3066-1.5191-.3903-2.2153-.7384-.7938-.3969-1.4215-1.08-2.2153-1.4769-7.1318-3.5658 1.377.9514-3.6922-.7384-.3302-.11-.4488-.5453-.7384-.7384-3.7305-2.487-.0171-.0057-2.2153-.7385-.5222-.174-.9548-.5644-1.477-.7384-.2334-.0778-.4922 0-.7384 0h-2.9537c-.8762 0-5.1908-.1433-5.9075 0-.5397.108-.9658.534-1.4768.7384-.2206.0882-4.3977 1.4506-4.4306 1.4769-.693.5544-.8494 1.5878-1.477 2.2153-.3891.3892-1.0048.4553-1.4768.7384-.761.4566-1.5223.9225-2.2153 1.4769-1.639.311-1.345 2.0835-2.2153 2.9537-.6275.6276-1.5053.9444-2.2153 1.477-.2785.2088-.4488.5453-.7384.7383-.916.6107-2.0378.8663-2.9538 1.477-.2896.193-.4488.5453-.7384.7383-.458.3054-.9846.4923-1.4769.7385l-2.9537 1.4768c-.4923.2462-1.019.4332-1.4769.7385-.2896.193-.4007.654-.7384.7384-.7164.1791-1.499-.179-2.2153 0-.3377.0844-.4488.5454-.7384.7385-.458.3053-.9548.5643-1.477.7384-.2334.0778-.5048-.0779-.7383 0-1.4897.4965-1.4641.9803-2.9538 1.4769-.2335.0778-.5183-.1101-.7384 0-1.6.8.1231.6768-1.4769 1.4768-.2201.1101-.5644-.174-.7384 0-.3892.3892-.3493 1.0877-.7384 1.4769-.3892.3892-1.0877.3492-1.477.7384-.174.174.1366.5337 0 .7385-.568.852-1.6472 1.3632-2.2152 2.2153-.8659 1.2988-.8765 2.191-1.4769 3.6921-.2044.511-.605.943-.7384 1.477-.1194.4775.2201 1.0365 0 1.4768-.3114.6227-1.1187.8799-1.4769 1.4768-.8941 1.4902-.7384 2.191-.7384 3.6922 0 .4923.1194.9993 0 1.4769-.1948.7789-1.2822 2.1748-1.4769 2.9537-.125.4998 0 4.6939 0 5.169v5.1691c0 .4923-.0965.9941 0 1.4769.7683 3.8415.4923.7384 1.4769 3.6921.0778.2336-.0778.505 0 .7385.5149 1.5446 1.6101 2.9177 2.2153 4.4306.289.7227.338 1.5478.7384 2.2153.3582.597 1.0592.9199 1.4769 1.4769.3302.4403.4923.9845.7384 1.4768.2462.4923.534.9659.7384 1.4769.1923.4806.8997 3.115 1.477 3.6922.3891.3891 1.2306.2461 1.4768.7384.3302.6605-.3303 1.5548 0 2.2153.2461.4923 1.0877.3492 1.4769.7384.6452.6453 1.1884 3.1154 1.4768 3.6922.1557.3114.5454.4488.7385.7384.0917.1376 1.4295 2.9065 1.4768 2.9538.3892.3892 1.0877.3492 1.4769.7384.174.174-.11.5183 0 .7384.282.5641 2.0486 1.7153 2.2153 2.2153.1557.467-.2202 1.0366 0 1.477.11.22.5183-.1102.7384 0 .3114.1556.4923.4922.7385.7383l.7384.7385c0 .2461-.174.5644 0 .7384 4.9229 4.923-1.723-3.6922 2.2153 2.2153 1.131 1.6965.4218-.3166 2.2153 1.4769.174.174-.174.5644 0 .7384.174.174.5644-.174.7384 0 1.7936 1.7935-.2195 1.0844 1.4769 2.2153.6746.4497 1.792.6303 2.2153 1.4769.11.2202-.2201.6283 0 .7384.6605.3303 1.5548-.3302 2.2153 0 .3114.1557.4082.6284.7385.7385.467.1556 1.0098-.1557 1.4768 0 .3303.11.4271.5827.7385.7384.2201.11.5182-.11.7384 0 .3113.1557.4082.6284.7384.7384.432.144 3.7968 0 4.4306 0h8.8612" fill="none" stroke="#000"/><path d="M159.5018 279.8582l-2.2153-3.6921c-.2461-.7385-.3903-1.5191-.7384-2.2153-2.4896-3.7344-.6867-.609-2.2153-4.4306-.2044-.511-.4332-1.019-.7385-1.4769-.193-.2896-.6283-.4082-.7384-.7384-.2215-.6646.2215-1.5507 0-2.2153.445-1.3366-1.1962-1.3734-1.4769-2.2153-.1556-.467.1194-.9993 0-1.477-.1335-.5339-.605-.9428-.7384-1.4768-.1194-.4776.0965-.9941 0-1.4769-.1527-.7632-.6284-1.4447-.7384-2.2153-.1393-.9746.1392-1.979 0-2.9537-.1101-.7705-.6105-1.4475-.7385-2.2153-.1214-.7284.1045-1.4843 0-2.2153-.1435-1.0047-.6125-1.9467-.7384-2.9537-.1221-.977 0-1.9692 0-2.9538v-39.8754c0-1.2307.1359-2.469 0-3.6922-.112-1.0087-.595-1.949-.7384-2.9537-.1045-.731.0816-1.4814 0-2.2153-.1654-1.4881-.5895-2.9408-.7385-4.4306-.098-.9797.1088-1.9752 0-2.9538-.1386-1.2474-.6135-2.4433-.7384-3.6922-.1225-1.2246.1225-2.4675 0-3.6921-.6266-6.2655-1.0551-1.3201-2.2153-8.8612-.2246-1.4597.2428-2.9739 0-4.4306-.256-1.5356-1.0673-2.9287-1.4769-4.4306-.6605-2.4218-.9846-4.923-1.4768-7.3844-.2462-1.2307-.4662-2.467-.7385-3.6922-.2201-.9907-.6263-1.945-.7384-2.9537-.136-1.2232.1526-2.471 0-3.6922-.0965-.7723-.5246-1.4668-.7384-2.2153-.2789-.9758-.4597-1.9779-.7385-2.9537-.2138-.7484-.6283-1.4448-.7384-2.2153-.1393-.9747.1221-1.9768 0-2.9537-.1855-1.4836-.9864-3.6977-1.4769-5.169-.2461-.7385-.6105-1.4476-.7384-2.2154-.1214-.7284 0-1.4769 0-2.2153v-4.4306c0-.7384.1448-1.4912 0-2.2153-.108-.5397-.6305-.9372-.7385-1.4769-.1433-.7166 0-5.0312 0-5.9074V97.465c0-.2462-.174-.5644 0-.7385.174-.174.5644.174.7385 0 .174-.174 0-.4923 0-.7384v-.7384m93.0427 185.347c-.2922-4.2546.4506-8.4483 1.4769-12.5534.2461-.9846.6263-1.945.7384-2.9537.136-1.2232-.1225-2.4676 0-3.6922.1249-1.2489.4923-2.4615.7384-3.6922l2.2153-11.0765c1.824-9.1202-.4126 2.2697 1.477-8.1228.2244-1.2348.3777-2.49.7383-3.6921.381-1.2697 1.217-2.3924 1.477-3.6922.2413-1.2068-.1115-2.4665 0-3.6922.1355-1.491.6028-2.9395.7383-4.4306.1115-1.2257-.1359-2.469 0-3.6922.1121-1.0086.6264-1.945.7385-2.9537.2718-2.4464-.245-4.9351 0-7.3843.1249-1.249.6248-2.4423.7384-3.6922.1337-1.4708 0-2.9538 0-4.4306v-31.0143c0-1.2307.1225-2.4675 0-3.6921-.1249-1.2489-.6135-2.4433-.7384-3.6922-.1225-1.2246.1224-2.4676 0-3.6922-.125-1.2489-.514-2.4573-.7385-3.6922-.2678-1.473-.5107-2.9507-.7384-4.4306-.2647-1.7202-.347-3.473-.7384-5.169-.35-1.5169-1.0993-2.9203-1.4769-4.4306-.3631-1.4525-.4018-2.9717-.7384-4.4306-.403-1.746-1.1823-3.4015-1.4769-5.169-.2023-1.214.136-2.469 0-3.6922-.112-1.0087-.5183-1.963-.7384-2.9538-.2723-1.2252-.434-2.4745-.7385-3.6921-.1887-.7552-.6104-1.4475-.7384-2.2153-.1214-.7284.1214-1.487 0-2.2153-.128-.7678-.6105-1.4476-.7384-2.2153-.1214-.7284 0-1.4769 0-2.2153-.2462-.7385-.5858-1.452-.7385-2.2153-.0965-.4828.1194-.9993 0-1.477-.1335-.5339-.605-.9428-.7384-1.4768-.1194-.4776 0-.9846 0-1.4769v-8.1228c0-.246.11-.5182 0-.7384-.1557-.3113-.6284-.4082-.7384-.7384-.1557-.467.1556-1.0098 0-1.4769-.1101-.3302-.5828-.427-.7385-.7384-.11-.2202.1101-.5183 0-.7384-.1556-.3114-.5827-.4271-.7384-.7385-.1464-.2928.151-2.0643 0-2.2153-.174-.174-.5644.174-.7384 0-.174-.174.0778-.5049 0-.7384-.174-.5222-.534-.9658-.7385-1.4769-.289-.7227-.5496-1.4601-.7384-2.2153-.3884-1.5538.9787.0742-.7384-2.2153-4.8982-4.8981.6962 1.3924-1.477-2.9537-2.4041-4.8085-.74 1.472-2.2152-2.9538-.7327-2.1982 1.7485 1.5152-.7384-2.2153-2.4491-2.449.348.6962-.7385-1.4768-.9125-1.825-.7384.2549-.7384-1.4769m-64.2438 72.3666c3.3437-1.154 6.4462-2.854 9.5997-4.4306 1.2052-.6026 2.3234-1.2488 3.6921-1.4769.7284-.1214 1.487.1214 2.2153 0 2.0633-.3439 4.5826-1.8714 6.646-2.2153.7283-.1214 1.4768 0 2.2152 0h6.646m-36.839-25.0692c.3481-.174.7404-.279 1.0443-.5221.152-.1216.1235-.3846.2611-.5222s.3845-.1235.5221-.261c.222-.222.3262-.5383.5222-.7833.4585-.573 1.108-.9933 1.5665-1.5664.196-.245.3002-.5614.5221-.7833.4438-.4437 1.0764-.6522 1.5665-1.0443.2883-.2306.4878-.5617.7832-.7832.251-.1883.5614-.3003.7832-.5222.1376-.1376.1443-.3664.261-.5221.1478-.197.3482-.3481.5223-.5222.174-.174.3252-.3744.5221-.5221.1557-.1168.3665-.1443.5222-.261.1422-.1068 1.2095-1.1617 1.3053-1.3055.0483-.0724-.0389-.1832 0-.261.055-.1101.174-.174.2611-.2611.087-.087.151-.206.261-.261.0779-.039.1741 0 .2612 0l.7832 1.5664c0 .174-.055.357 0 .5221.0389.1168.1928.1587.261.261.8793 1.319.002.006.2611.7833.0615.1846.1996.3376.2611.5222.0275.0826 0 .174 0 .261 0 .2611-.0633.53 0 .7833.0298.1194.2222.1443.261.261.055.1652-.055.357 0 .5222.039.1168.1929.1587.2612.261.108.162.1995.3376.261.5222.1306.3916-.261.2611 0 .7833.039.0778.2222-.0778.2611 0 .0778.1556-.0422.3533 0 .5221.0472.1888.1996.3376.261.5222.0276.0826-.0388.1832 0 .261.055.1101.2222.1444.2612.2611.0446.1337 0 1.3798 0 1.5665 0 .087-.0275.1785 0 .261.0615.1847.1995.3376.261.5222.0275.0826 0 .174 0 .261v1.0444c0 .087.039.1832 0 .261-.055.1101-.2221.1444-.261.2611-.0826.2477.0826.5356 0 .7833-.158.4741-.2235.4845-.5222.7832-.087.087-.206.151-.261.261-.0779.1557.0777.3665 0 .5222-.5433 1.0866.018-.279-.5222.261-.0615.0616.0615.1996 0 .2612-.0714.0714-.9027-.0708-1.0443 0-.11.055-.151.206-.261.261-.1558.0778-.3666-.0778-.5222 0-.1101.055-.151.206-.2611.2611-.0778.039-.174 0-.261 0h-2.3497c-.087 0-.1996.0615-.2612 0-.0615-.0615.0615-.1995 0-.261-.0615-.0616-.1785.0274-.261 0-.1846-.0616-.3376-.1996-.5222-.2611-.1016-.034-.7427.0405-.7832 0-.0615-.0615.0615-.1996 0-.2611s-.1833.0389-.261 0c-.1102-.055-.151-.206-.2612-.261-.1556-.0779-.3664.0777-.5221 0-.8659-.866.2461.123-.5222-.2612-.5545-.2772.0324-.2449-.5221-.5221-.0778-.039-.1996.0615-.261 0-.0616-.0615.0614-.1995 0-.261-.0616-.0616-.1833.0388-.2612 0-.11-.055-.174-.1741-.261-.2612-.087-.087-.206-.151-.2611-.261-.039-.0778.0778-.2222 0-.2611-.1557-.0778-.3481 0-.5222 0-.087 0-.1995.0615-.261 0s.0389-.1833 0-.261c-.055-.1102-.1741-.1741-.2611-.2612-.087-.087-.151-.206-.2611-.261-.0778-.039-.174 0-.261 0-.1741-.087-.3603-.1532-.5222-.2611-.5172.026-.1235-.3846-.2611-.5222-.0615-.0615-.1995.0615-.261 0-.0616-.0615 0-.174 0-.261l-1.0444-.7833zm34.9842-14.3592l1.0443.7833c.087 0 .1832-.039.261 0a.5982.5982 0 0 1 .2611.261c.039.0778-.0615.1996 0 .2611.1231.1231.3665-.0778.5222 0 .11.055.1587.1928.261.2611.162.108.3603.1531.5222.261.1024.0684.151.2061.2611.2612.643.3215-.2357-.7579.7832.261.3481.3481-.5538.2505.2611.5222.1651.055.3665-.0778.5222 0 .0778.0389-.039.1832 0 .261.1496.2994.5447.3632.7832.5222.3072.2048.476.5784.7832.7832.0724.0483.1832-.0389.261 0 .3134.1567.47.6266.7833.7833.0778.0389.1833-.039.2611 0 .802.401-.4318.1472.5221.7832.1449.0966.3774-.0965.5222 0 .162.108.1235.3846.261.5222.1377.1376.3665.1443.5222.261.2954.2216.476.5785.7833.7833.1619.1079.3845.1234.5221.261s.1235.3846.261.5222c.1377.1376.3846.1235.5222.261.1376.1377.1235.3846.2611.5222.0615.0615.1833-.0389.261 0 .1102.055.151.206.2612.261.0778.039.1995-.0614.261 0 .0615.0616 0 .1741 0 .2612v.261c-2.1792 1.3076-.8073.1667-1.5664 1.3054-.0683.1024-.1443.2222-.261.261-.1652.055-.3666-.0777-.5222 0-.2202.1102-.3253.3746-.5222.5222-.3114.2336-.7691.247-1.0443.5222-.1376.1376-.0992.4142-.261.5222-1.241.8272.2194-1.0028-1.0444.261-.1376.1376-.0992.4142-.261.5222-.1449.0965-.3534-.0422-.5222 0-.1888.0472-.3481.174-.5222.261-.174.087-.3602.1532-.5221.2611-.1024.0683-.1443.2222-.261.2611-.1652.055-.3571-.055-.5222 0-.1168.0389-.1444.2222-.2611.261-.1651.055-.3665-.0777-.5222 0-.0778.039.0778.2222 0 .2612-.1556.0778-.357-.055-.5221 0-.1168.0389-.1443.2221-.261.261-.7833.2611-.2612-.1305-.7833 0-.267.0667-.5163.1944-.7833.2611-.0844.0211-.174 0-.261 0h-3.1329c-.087 0-.1996.0615-.2611 0s.0615-.1995 0-.261c-.1306-.1306-.6527.1305-.7832 0-.0615-.0616.0615-.1996 0-.2611s-.1996.0615-.2611 0c-.5402-.5402.8254.021-.261-.5222-.3602-.18-.2336.3162-.5223-.261-.0778-.1557.055-.3571 0-.5222-.0615-.1846-.1995-.3376-.261-.5222-.0275-.0826.0389-.1832 0-.261-.055-.1101-.206-.151-.2611-.2611-.0292-.0585 0-.9823 0-1.0443v-3.9162c0-.174-.0422-.3533 0-.5221.0472-.1888.1995-.3376.261-.5222.0276-.0826-.0274-.1785 0-.261.0616-.1847.223-.3314.2611-.5222.0213-.1063-.0492-1.468 0-1.5665.055-.11.206-.151.2611-.261.0778-.1557-.123-.3991 0-.5222.0615-.0615.2222.0778.2611 0 .0778-.1557 0-.348 0-.5221 0-.087-.0615-.1996 0-.2611s.1995.0615.261 0c.1306-.1306-.1305-.6527 0-.7832.0616-.0615.1833.0389.2612 0 .11-.055.174-.1741.261-.2611.087-.087.206-.151.2611-.2611.039-.0778-.0615-.1995 0-.261.0615-.0616.1995.0614.261 0 .0616-.0616-.0614-.1996 0-.2612.0616-.0615.1996.0615.2612 0 .0615-.0615-.0615-.1995 0-.261s.1995.0615.261 0-.0615-.1996 0-.2611c.1231-.123.3606.0646.5222 0 .3613-.1445.6962-.3481 1.0443-.5222z" fill="none" stroke="#000"/><g style="line-height:1.25;-inkscape-font-specification:Ubuntu"><path d="M108.8941 51.1482q-.6372 5.212-1.3523 9.6582-.7151 4.4464-1.4464 8.6623l-2.3077.1625q-1.6742-5.7818-3.1088-12.2362-1.411-6.456-2.7838-14.0716l2.4267-.1709q.5437 2.9695 1.1113 5.9373.5676 2.9678 1.1481 5.7805.5778 2.7742 1.1395 5.3183.5616 2.544 1.12 4.7027.668-4.096 1.401-8.9677.7303-4.9101 1.2961-10.117l1.9985-.1407q1.2898 5.0762 2.7245 9.834 1.432 4.7192 2.6673 8.6812.2294-2.1756.429-4.7732.1998-2.5977.3595-5.4238.1807-2.8663.327-5.8843.1434-3.0565.2658-6.0728l2.3553-.1658q-.3162 7.7344-.8325 14.3261-.4925 6.59-1.3163 12.5479l-2.3077.1625q-1.3386-4.0704-2.6457-8.3742-1.3072-4.304-2.6684-9.3753zm22.872-10.2093l2.3078-.1625 1.8719 26.5909-2.3078.1625-.8643-12.2788-8.0652.5678.8644 12.2788-2.3078.1624-1.8719-26.591 2.3078-.1624.7806 11.0891 8.0652-.5678zm12.1991 25.8638l-.751-10.667q-1.9306-3.9903-3.6627-7.8787-1.7322-3.8884-3.287-7.635l2.7122-.1909q1.1256 3.0828 2.4733 6.2656 1.3451 3.1444 2.7453 6.0535.9551-3.075 1.8464-6.3768.8886-3.3402 1.5949-6.552l2.5695-.1808q-1.0146 3.9275-2.185 8.0203-1.173 4.0543-2.5045 8.2355l.7563 10.7438zm22.9067-1.0343q-1.7367.1222-3.229-.6983-1.4923-.8202-2.6396-2.5133t-1.8992-4.2236q-.731-2.5707-.966-5.909t.2027-5.9527q.4587-2.6544 1.405-4.4948t2.309-2.8619q1.3626-1.0213 2.9805-1.1352 1.023-.072 1.848.1012.849.1717 1.4653.4366.6402.2636 1.0425.5437.4022.2802.5558.4236l-.45 3.1165q-.2304-.215-.6537-.4552-.4234-.24-.9657-.4718-.5185-.2334-1.148-.3434-.6082-.15-1.2268-.1065-1.3084.0921-2.304.8949t-1.6357 2.236q-.6404 1.4333-.9043 3.457-.243 1.9838-.07 4.4395.1674 2.379.6382 4.3125.4947 1.9317 1.2846 3.303.7872 1.3326 1.8642 2.028 1.1009.6938 2.4807.5966 1.594-.1122 2.603-.723t1.5026-1.07l.811 3.0278q-.153.2037-.5597.5408-.4093.2987-1.0328.6125t-1.4664.566q-.843.2521-1.8422.3225zm19.1261-1.925q-.526-1.6982-.999-3.323-.4756-1.6632-.978-3.363l-7.4703.5259-1.0207 6.897-2.403.1692q.6546-4.2877 1.2361-7.9148.5787-3.6654 1.137-6.944.582-3.28 1.1618-6.2514.5771-3.0098 1.231-5.948l2.1174-.149q1.0591 2.8175 2.0522 5.7168.9903 2.8609 2.0024 6.0287 1.0358 3.1662 2.1224 6.7144 1.0838 3.5099 2.3326 7.6637zm-2.859-9.7089q-.9964-3.2845-1.9765-6.339-.959-3.0945-1.9706-5.9154-.63 2.9365-1.1699 6.1364-.5187 3.16-1.0212 6.5502zm18.8969 8.5798q-.6234-1.3828-1.4376-3.0994-.7903-1.718-1.7079-3.543-.9201-1.8632-1.9144-3.7598-.9704-1.8983-1.93-3.6431-.9624-1.7833-1.861-3.3395-.8984-1.5562-1.651-2.7372l1.4612 20.7584-2.26.1591-1.872-26.5907 1.832-.129q1.2531 1.8398 2.695 4.322 1.463 2.442 2.892 5.0792 1.45 2.5972 2.728 5.1293 1.302 2.5306 2.2064 4.5106l-1.3857-19.6842 2.2601-.1592 1.872 26.5909zm5.9531-29.7254l.135 1.9185q.1324 1.8802.1356 3.9622.0003 2.0438-.0706 4.0925l-1.3085.0921q-.3572-2.0186-.6432-4.0422-.2886-2.062-.4236-3.9805l-.1324-1.88zm14.937 1.532l.227 3.2232-5.1865.3651 1.645 23.3678-2.3078.1625-1.645-23.3678-5.1864.3651-.2269-3.2232zM116.3964 89.9522q3.4735-.2445 5.4804 1.7736 2.028 1.978 2.3252 6.1989.162 2.3022-.2451 3.989-.3862 1.6467-1.2888 2.7514-.8814 1.0646-2.2288 1.6223-1.3475.5575-3.0842.6798l-1.832.129.6943 9.8613-2.3078.1624-1.8448-26.2072q.9483-.4524 2.1298-.6512 1.2025-.239 2.2018-.3093zm.42 3.248q-1.4752.104-2.2521.2744l.7347 10.4368 1.7367-.1222q1.1896-.0838 2.125-.3811.9327-.3356 1.5345-.9563.623-.6608.9069-1.722.284-1.0611.1705-2.6728-.108-1.5348-.559-2.5056-.427-.9725-1.1098-1.5028-.6619-.5704-1.5108-.742-.8488-.1716-1.7767-.1063zm21.3515 22.2119q-.526-1.6982-.999-3.323-.4757-1.6632-.978-3.3631l-7.4703.5259-1.0207 6.897-2.403.1692q.6546-4.2876 1.2361-7.9148.5787-3.6654 1.137-6.9438.582-3.2802 1.1618-6.2516.577-3.0098 1.231-5.948l2.1174-.149q1.059 2.8176 2.0522 5.7168.9903 2.861 2.0024 6.0288 1.0358 3.1662 2.1224 6.7144 1.0838 3.51 2.3326 7.6636zm-2.8591-9.709q-.9964-3.2844-1.9765-6.339-.959-3.0944-1.9705-5.9154-.63 2.9365-1.1699 6.1366-.5188 3.1598-1.0212 6.55zm14.9252-9.2641q-.6372 5.212-1.3523 9.6582-.715 4.4465-1.4464 8.6623l-2.3077.1625q-1.6742-5.7818-3.1089-12.2362-1.4108-6.456-2.7837-14.0716l2.4266-.1708q.5438 2.9694 1.1114 5.9372.5675 2.9678 1.1481 5.7805.5778 2.7742 1.1395 5.3183.5616 2.544 1.12 4.7027.668-4.096 1.401-8.9677.7302-4.9101 1.2962-10.117l1.9984-.1407q1.2898 5.0763 2.7246 9.834 1.432 4.7192 2.6673 8.6812.2293-2.1756.429-4.7732.1997-2.5977.3594-5.4238.1808-2.8663.327-5.8843.1434-3.0564.2658-6.0728l2.3553-.1658q-.3163 7.7344-.8325 14.3262-.4924 6.59-1.3163 12.5478l-2.3077.1625q-1.3386-4.0704-2.6458-8.3742-1.307-4.304-2.6683-9.3753zm18.015 14.1946q3.6163-.2546 3.3353-4.2451-.0864-1.228-.4789-2.0486-.3714-.8607-.9619-1.4362-.593-.6138-1.3392-1.024-.7223-.4119-1.54-.817-.9391-.4352-1.7911-.9922-.8549-.5954-1.509-1.3976-.657-.8407-1.0976-2.005-.4168-1.1662-.5356-2.8544-.2458-3.4918 1.0915-5.5525 1.3373-2.0608 3.9305-2.2433 1.4988-.1055 2.75.3462 1.2722.4118 1.8865.9855l-.5242 3.0832q-.5347-.4636-1.5664-.8537-1.0105-.4303-2.319-.3381-.6661.0469-1.221.3174-.5548.2704-.9506.761-.3958.4905-.6062 1.2381-.1893.7073-.1218 1.6666.0757 1.0744.3887 1.785t.8294 1.2527q.5136.5037 1.1646.9206.6748.4153 1.4685.8222 1.1192.6152 2.048 1.2439.9528.627 1.6627 1.541.7336.9124 1.185 2.2302.4487 1.2795.5811 3.1597.2458 3.4917-1.2158 5.4842-1.4378 1.9906-4.3166 2.1933-.9754.0687-1.8244-.1029-.8223-.135-1.4836-.3583-.664-.2617-1.1614-.5352-.4764-.3135-.7542-.5253l.4738-3.1182q.5823.4602 1.7437.9955 1.1614.5352 2.7792.4213zm12.6062-24.9496l2.3078-.1624 1.8718 26.591-2.3077.1624zm19.5851 25.344q-.6233-1.383-1.4375-3.0995-.7904-1.718-1.7079-3.543-.9201-1.8632-1.9145-3.7598-.9703-1.8983-1.93-3.6431-.9623-1.7831-1.861-3.3395-.8984-1.5562-1.651-2.7372l1.4613 20.7584-2.2602.1591-1.8719-26.5907 1.832-.129q1.2532 1.8398 2.6952 4.322 1.463 2.442 2.8918 5.0792 1.45 2.5972 2.7281 5.1293 1.3018 2.5306 2.2064 4.5106l-1.3857-19.6841 2.2601-.1591 1.872 26.5908zm13.1617-.3482q-1.7367.1223-3.2291-.6982-1.4923-.8205-2.6395-2.5134-1.1473-1.693-1.8992-4.2237-.731-2.5706-.966-5.9089t.2026-5.9527q.4587-2.6544 1.405-4.4949.9464-1.8403 2.309-2.8618 1.3627-1.0214 2.9805-1.1353 1.023-.072 1.8481.1012.8488.1717 1.4653.4367.6402.2635 1.0424.5437.4023.2801.5559.4236l-.45 3.1165q-.2304-.2151-.6538-.4552-.4234-.2401-.9657-.4719-.5184-.2334-1.1478-.3433-.6084-.1501-1.227-.1065-1.3084.092-2.3039.8948t-1.6358 2.236q-.6403 1.4334-.9042 3.4571-.2429 1.9837-.07 4.4395.1674 2.379.6382 4.3124.4946 1.9318 1.2846 3.303.7872 1.3327 1.8642 2.028 1.1008.6938 2.4807.5966 1.594-.1122 2.603-.723t1.5026-1.07l.811 3.0279q-.153.2036-.5597.5407-.4094.2987-1.0328.6125t-1.4665.566q-.843.2522-1.8422.3225zm-91.337 50.3512q-.3027-.9042-.8071-2.2954-.4806-1.393-1.0487-3.011-.5683-1.6181-1.2133-3.308-.6238-1.73-1.1839-3.2329-.5628-1.5413-1.0536-2.7406-.4671-1.2012-.751-1.8367.0571 4.546.2633 9.853.2035 5.2685.4627 10.6488l-2.2601.1591q-.148-3.46-.2748-6.9601-.1296-3.5386-.2245-6.9252-.074-3.4268-.1343-6.6616-.0365-3.2365-.025-6.1295l2.0223-.1423q.7612 1.643 1.6608 3.8934.8996 2.2503 1.8153 4.7309.9132 2.4421 1.7814 4.926.8655 2.4456 1.5823 4.4774.4252-2.1122.9395-4.6549.5117-2.581 1.0737-5.127.5593-2.5844 1.1346-4.9387.5755-2.3541 1.099-4.0877l2.0222-.1423q1.7138 12.7973 3.0853 26.5055l-2.2602.1591q-.497-5.3635-1.0336-10.6086-.5393-5.2833-1.1198-9.7927-.192.669-.51 1.9253-.2942 1.2548-.6355 2.8598-.344 1.5666-.7432 3.3685-.378 1.7619-.7139 3.4436t-.6404 3.13q-.2807 1.4466-.4538 2.3842zm24.5998 1.97q-.526-1.6983-.999-3.323-.4757-1.6633-.978-3.3632l-7.4704.526-1.0206 6.8971-2.403.1692q.6545-4.2877 1.236-7.9149.5787-3.6654 1.137-6.9438.582-3.2802 1.1618-6.2516.577-3.0098 1.231-5.948l2.1174-.149q1.059 2.8175 2.0522 5.7168.9903 2.861 2.0024 6.0288 1.0357 3.1662 2.1223 6.7144 1.0839 3.5099 2.3327 7.6636zm-2.8591-9.709q-.9963-3.2845-1.9765-6.339-.959-3.0945-1.9704-5.9153-.6301 2.9364-1.17 6.1365-.5188 3.1598-1.0213 6.55zm5.7243-17.2155l2.3077-.1625 1.8719 26.591-2.3077.1625zm19.585 25.344q-.6233-1.383-1.4375-3.0995-.7904-1.718-1.708-3.543-.92-1.8633-1.9143-3.7599-.9704-1.8982-1.93-3.643-.9623-1.7832-1.861-3.3396-.8985-1.5561-1.651-2.7372l1.4612 20.7586-2.2601.1591-1.872-26.591 1.832-.129q1.2533 1.84 2.6952 4.322 1.4629 2.442 2.8919 5.0792 1.45 2.5972 2.728 5.1293 1.3019 2.5306 2.2063 4.5107l-1.3856-19.6842 2.2601-.1591 1.8719 26.5908zm15.1748-27.7912l.227 3.2232-5.1866.3652 1.645 23.3677-2.3078.1625-1.645-23.3678-5.1863.3652-.227-3.2232zm13.7674 25.7535q-.526-1.6982-.999-3.323-.4757-1.6632-.978-3.3631l-7.4703.5259-1.0207 6.8972-2.4029.1691q.6545-4.2877 1.236-7.9149.5787-3.6654 1.137-6.9438.582-3.2801 1.1618-6.2516.5771-3.0098 1.231-5.948l2.1173-.149q1.0591 2.8176 2.0523 5.7168.9904 2.861 2.0023 6.0288 1.0358 3.1662 2.1225 6.7144 1.0838 3.51 2.3326 7.6636zm-2.8592-9.709q-.9962-3.2844-1.9764-6.339-.959-3.0944-1.9705-5.9152-.63 2.9363-1.17 6.1364-.5186 3.1598-1.0211 6.55zm5.7244-17.2155l2.3077-.1624 1.8719 26.591-2.3078.1624zm19.585 25.344q-.6233-1.383-1.4375-3.0995-.7904-1.718-1.7078-3.543-.9203-1.8632-1.9145-3.7598-.9704-1.8983-1.93-3.6431-.9624-1.7832-1.861-3.3395-.8985-1.5562-1.6511-2.7372l1.4613 20.7585-2.2601.1591-1.872-26.591 1.832-.1289q1.2532 1.84 2.6952 4.322 1.463 2.4419 2.8919 5.0791 1.45 2.5972 2.728 5.1294 1.3019 2.5305 2.2064 4.5106l-1.3857-19.6842 2.2602-.159 1.8718 26.5908zm-84.9073 27.456l.2269 3.2233-5.1866.3651 1.645 23.3678-2.3077.1624-1.645-23.3677-5.1864.3651-.2269-3.2232zm12.7866-.9002l2.3077-.1624 1.8719 26.591-2.3078.1624-.8643-12.2786-8.0652.5678.8643 12.2786-2.3077.1625-1.872-26.591 2.3078-.1624.7807 11.0891 8.0652-.5678zm8.2734 26.1403l-1.8719-26.591 10.0637-.7085.2242 3.1849-7.7558.546.5564 7.9043 6.8993-.4857.2188 3.108-6.8994.4858.6483 9.209 8.3507-.5879.2242 3.1849zm22.6955-4.2586q3.6162-.2546 3.3353-4.2452-.0864-1.2278-.4789-2.0484-.3714-.8607-.9618-1.4361-.5932-.614-1.3393-1.024-.7224-.412-1.54-.8172-.939-.435-1.7912-.992-.8548-.5955-1.509-1.3977-.6569-.8407-1.0975-2.005-.4168-1.166-.5356-2.8544-.2458-3.4917 1.0914-5.5525 1.3373-2.0608 3.9305-2.2433 1.4989-.1055 2.7501.3462 1.2723.4117 1.8864.9855l-.5241 3.0832q-.5347-.4636-1.5664-.8537-1.0105-.4303-2.319-.3381-.6662.0469-1.221.3174-.5548.2704-.9506.761-.3958.4905-.6062 1.2381-.1892.7073-.1217 1.6666.0756 1.0744.3886 1.785.313.7107.8294 1.2527.5136.5037 1.1645.9206.6748.4153 1.4685.8222 1.1193.6152 2.0482 1.2439.9527.627 1.6626 1.541.7336.9124 1.185 2.2302.4487 1.2796.581 3.1597.2459 3.4917-1.2157 5.4842-1.4379 1.9906-4.3166 2.1933-.9754.0687-1.8244-.1029-.8223-.1348-1.4836-.3583-.664-.2617-1.1614-.5352-.4763-.3135-.7542-.5253l.4738-3.1181q.5823.4602 1.7437.9954 1.1614.5352 2.7792.4213zm7.1231-24.5634l2.3078-.1625 1.8719 26.591-2.3078.1624zm17.4277-1.227l.227 3.2232-5.1866.3652 1.645 23.3677-2.3078.1625-1.645-23.3678-5.1863.3652-.227-3.2233zm4.2856 26.421l-1.8719-26.591 10.0636-.7084.2242 3.1848-7.7558.546.5564 7.9044 6.8993-.4858.2188 3.108-6.8994.4858.6483 9.209 8.3507-.5878.2242 3.1848zm-92.8208 28.0133l.227 3.2232-5.1865.3651 1.645 23.3678-2.3078.1625-1.645-23.3678-5.1864.3652-.2269-3.2233zm12.7867-.9002l2.3077-.1625 1.872 26.591-2.3078.1624-.8644-12.2786-8.0653.5679.8644 12.2786-2.3078.1624-1.8718-26.591 2.3077-.1624.7806 11.0891 8.0652-.5678zm8.2736 26.1402l-1.872-26.591 10.0636-.7084.2242 3.1848-7.7558.546.5564 7.9044 6.8994-.4858.2188 3.108-6.8994.4858.6482 9.209 8.3507-.5878.2242 3.1848zm20.708-5.1597q-.3028-.9042-.8072-2.2954-.4806-1.393-1.0487-3.011-.5683-1.6182-1.2133-3.308-.6238-1.73-1.1839-3.2329-.5627-1.5413-1.0536-2.7407-.4671-1.2011-.751-1.8367.0571 4.5461.2634 9.8531.2035 5.2685.4627 10.649l-2.2602.159q-.148-3.46-.2748-6.9602-.1296-3.5386-.2245-6.9253-.0739-3.4266-.1343-6.6615-.0365-3.2365-.025-6.1295l2.0223-.1423q.7612 1.643 1.6608 3.8933.8997 2.2505 1.8153 4.731.9132 2.4422 1.7814 4.926.8655 2.4456 1.5824 4.4775.4251-2.1123.9394-4.655.5117-2.581 1.0737-5.127.5593-2.5844 1.1347-4.9386.5755-2.3542 1.099-4.0877l2.0222-.1423q1.7137 12.7972 3.0852 26.5055l-2.2602.1591q-.497-5.3636-1.0336-10.6086-.5393-5.2835-1.1198-9.7928-.192.6691-.51 1.9254-.2942 1.2546-.6355 2.8596-.344 1.5668-.7432 3.3686-.378 1.7618-.7139 3.4436t-.6404 3.13q-.2807 1.4465-.4538 2.3841zm17.2285-.1718q3.6162-.2546 3.3353-4.2451-.0864-1.2279-.4789-2.0486-.3714-.8607-.962-1.4362-.593-.6138-1.3392-1.024-.7223-.4119-1.5399-.817-.9391-.4352-1.7912-.9921-.8548-.5955-1.509-1.3977-.657-.8406-1.0975-2.005-.4168-1.166-.5357-2.8544-.2458-3.4918 1.0915-5.5525 1.3373-2.0608 3.9305-2.2433 1.4989-.1055 2.75.3462 1.2723.4118 1.8865.9855l-.5241 3.0832q-.5347-.4636-1.5664-.8537-1.0105-.4301-2.319-.338-.6662.0469-1.221.3173t-.9506.761q-.3958.4905-.6062 1.2381-.1893.7074-.1218 1.6666.0756 1.0744.3887 1.785t.8294 1.2527q.5136.5037 1.1645.9206.6748.4153 1.4685.8222 1.1192.6152 2.0482 1.2439.9527.627 1.6626 1.541.7336.9124 1.185 2.2302.4487 1.2796.581 3.1597.2459 3.4918-1.2157 5.4842-1.4379 1.9906-4.3166 2.1933-.9755.0687-1.8244-.1029-.8223-.1348-1.4836-.3583-.664-.2617-1.1614-.5352-.4764-.3135-.7542-.5253l.4738-3.1181q.5823.4602 1.7437.9954 1.1614.5352 2.7792.4213zm8.995 2.0274l-1.872-26.591 10.0637-.7084.2242 3.1848-7.7558.546.5564 7.9043 6.8993-.4857.2188 3.108-6.8994.4858.6483 9.209 8.3507-.5879.2242 3.1849zm23.2623-4.8768l.2269 3.2231-9.9209.6985-1.8719-26.591 2.3078-.1625 1.645 23.368zm11.7475-24.3107q-.607 4.2845-1.1857 7.95-.5577 3.6253-1.116 6.9037-.5581 3.2785-1.1352 6.2883-.556 2.9698-1.1623 5.9045l-2.165.1525q-1.0115-2.8208-2.002-5.6818-.9692-2.901-2.005-6.0671-1.012-3.168-2.0959-6.6778-1.0866-3.5482-2.264-7.707l2.5457-.1793q1.7115 5.9722 3.343 11.4873 1.6315 5.5149 3.2857 10.3343.9655-4.9652 1.8083-10.6545.84-5.7276 1.6741-11.879zm4.1618 26.4297l-1.8719-26.591 10.0636-.7084.2242 3.1848-7.7559.546.5565 7.9044 6.8994-.4858.2188 3.108-6.8994.4858.6482 9.209 8.3507-.5879.2242 3.1849zm17.2123-3.8724q3.6163-.2546 3.3354-4.2452-.0865-1.2278-.479-2.0486-.3714-.8607-.9619-1.4362-.593-.6138-1.3392-1.0239-.7223-.412-1.5399-.8171-.9392-.4351-1.7912-.9921-.8548-.5955-1.509-1.3977-.657-.8406-1.0976-2.005-.4167-1.166-.5356-2.8544-.2458-3.4917 1.0914-5.5525 1.3374-2.0607 3.9306-2.2433 1.4988-.1055 2.75.3462 1.2722.4118 1.8865.9855l-.5242 3.0832q-.5347-.4636-1.5664-.8537-1.0105-.43-2.319-.338-.6661.047-1.221.3173t-.9505.761q-.3959.4906-.6063 1.2382-.1893.7073-.1217 1.6665.0756 1.0744.3886 1.785t.8294 1.2528q.5136.5036 1.1646.9205.6748.4153 1.4685.8222 1.1192.6152 2.0481 1.2439.9527.627 1.6626 1.541.7336.9124 1.185 2.2303.4488 1.2796.5811 3.1597.2458 3.4918-1.2158 5.4841-1.4378 1.9907-4.3166 2.1933-.9754.0687-1.8244-.1028-.8223-.1349-1.4836-.3584-.664-.2617-1.1614-.5352-.4763-.3135-.7543-.5252l.474-3.1182q.5822.4603 1.7436.9955t2.7792.4213z" style="text-align:center" text-anchor="middle" aria-label="WHY CAN'T PAWS INC MAINTAIN THE SITE THEMSELVES" font-weight="400" font-size="30.2886" font-family="Ubuntu" letter-spacing="0" word-spacing="0"/></g><path d="M80.4893 277.643c1.5248-81.474 1.2912-162.9479-8.8612-244.4218 95.7643-21.6146 140.2586-16.4795 192.7314-15.5071 23.0055 88.4607 19.4078 173.9655 26.5836 260.6673" fill="#e1e1e1" stroke="#000"/><path d="M277.6513 240.9981a9.5996 10.2458 0 0 1-9.5996 10.2458 9.5996 10.2458 0 0 1-9.5997-10.2458 9.5996 10.2458 0 0 1 9.5997-10.2457 9.5996 10.2458 0 0 1 9.5996 10.2457z" fill="#de003d" stroke="#000" stroke-linejoin="round"/><path style="line-height:normal;font-variant-ligatures:normal;font-variant-position:normal;font-variant-caps:normal;font-variant-numeric:normal;font-variant-alternates:normal;font-feature-settings:normal;text-indent:0;text-align:start;text-decoration-line:none;text-decoration-style:solid;text-decoration-color:#000;text-transform:none;text-orientation:mixed;white-space:normal;shape-padding:0;isolation:auto;mix-blend-mode:normal;solid-color:#000;solid-opacity:1" d="M270.0308 236.5007c.52.9725 1.7985 1.004 2.4883 1.793.747.8217 1.2105 1.9016 1.3086 3.0059.008 1.0864-.6593 2.0025-1.2773 2.8359-.6373.7993-1.2915 1.8301-2.2334 2.186-.8986.4253-2.2006.4868-3.171.2638-1.1032-.126-2.3304-.8054-3.0761-1.7135-.7545-.9657-1.2448-2.1439-1.3903-3.3599-.1064-.9297.1916-1.8792.7906-2.5956.292-.3881.6027-.764.8477-1.1851-1.5323.2489-2.5916 1.824-2.5207 3.3253.0197 1.7108.686 3.3981 1.7688 4.7138.983.9736 2.4393 2.1855 3.7547 2.2551 1.0744.0803 2.9818-.15 3.9854-.606 1.6206-.615 2.1549-2.6696 2.9848-4.1746.4684-.8214.5602-1.8087.3606-2.723-.2706-1.574-1.2812-3.0453-2.7558-3.7128-.5934-.2838-1.2426-.431-1.8961-.488z" color="#000" font-weight="400" font-family="sans-serif" overflow="visible"/><path style="line-height:normal;font-variant-ligatures:normal;font-variant-position:normal;font-variant-caps:normal;font-variant-numeric:normal;font-variant-alternates:normal;font-feature-settings:normal;text-indent:0;text-align:start;text-decoration-line:none;text-decoration-style:solid;text-decoration-color:#000;text-transform:none;text-orientation:mixed;white-space:normal;shape-padding:0;isolation:auto;mix-blend-mode:normal;solid-color:#000;solid-opacity:1" d="M266.4078 233.5554c-.04 1.174.2766 2.3206.4831 3.467.3158 1.1988.4586 2.4337.5188 3.6697l.3868 2.5743c.7446-.6814.7822-1.7694.7539-2.709-.0232-1.7902-.752-3.4554-1.0625-5.1973-.0848-.7851-.0475-1.9358-.9903-2.1973l-.0898.3926z" color="#000" font-weight="400" font-family="sans-serif" overflow="visible"/><path d="M96.1582 229.8604q-1.2574-.1024-2.2573-.6-.9998-.4976-1.676-1.3502-.676-.8527-.9955-2.0405-.3007-1.2035-.1787-2.7021.1221-1.4986.664-2.6162.5604-1.1334 1.4001-1.8626.8397-.7292 1.9068-1.0585 1.0672-.3292 2.2385-.2338.7407.0603 1.318.2114.5944.1525 1.0138.3253.4366.1743.701.3346.2644.1602.3621.2375l-.5945 1.3388q-.1466-.116-.4297-.2604-.283-.1445-.652-.296-.352-.15-.7942-.2553-.4236-.1212-.8715-.1577-.9474-.0772-1.732.1884-.7845.2655-1.369.8421t-.9502 1.4485q-.3472.856-.437 1.9584-.087 1.068.0826 1.966.1868.8996.6345 1.5776.449.6608 1.1616 1.0656.7298.4063 1.7289.4876 1.154.094 1.9316-.0854.7775-.1794 1.172-.338l.3183 1.413q-.1276.0764-.4489.189-.3198.0952-.7947.178-.475.0827-1.102.1183-.6271.0356-1.3506-.0233zm13.1918-4.5716q-.0115 1.0715-.3317 1.9322-.3202.8608-.897 1.4769-.5596.6162-1.341.9536-.781.32-1.697.3104-.9159-.01-1.69-.3463-.774-.3539-1.3377-.982-.5464-.628-.8483-1.4954-.302-.8673-.2906-1.9388.0112-1.0541.3314-1.9149.3204-.878.88-1.4943.577-.616 1.358-.9361.7813-.3374 1.6972-.3277.916.01 1.69.3636.7741.3366 1.3205.9645.5637.6282.8654 1.5128.3019.8674.2907 1.9215zm-1.6763-.0178q.016-1.5207-.6658-2.4094-.6645-.9057-1.8396-.9182-1.175-.0125-1.8759.8789-.6833.8741-.6994 2.3949-.016 1.5207.6483 2.4265.682.8886 1.857.901 1.1752.0126 1.8585-.8616.7007-.8913.7168-2.412zm3.8338-4.2136q.5523-.1414 1.45-.302.9151-.1606 2.1075-.1673.8641-.005 1.453.2337.589.2214.989.6685.1204-.0871.3788-.244.2583-.157.6377-.2975.3794-.1576.8454-.264.466-.1236 1.0016-.1266 1.037-.006 1.6954.3016.6584.2901 1.0244.841.3833.551.5085 1.3107.1426.7596.1476 1.6582l.0284 5.0463-1.6072.009-.0264-4.7006q-.004-.795-.094-1.3648-.0724-.5699-.2992-.9488-.2095-.379-.5907-.5498-.364-.188-.9516-.1847-.8122.005-1.3467.2322-.5173.2103-.7064.3842.1408.4486.213.984.072.5352.0753 1.1228l.0283 5.0463-1.6072.009-.0264-4.7006q-.004-.795-.094-1.3648-.0897-.5698-.3165-.9488-.2095-.379-.5907-.5497-.364-.188-.9343-.1848-.242.001-.5183.0202-.2764.0188-.5355.0549-.2418.0186-.449.0544-.2072.0357-.2762.0534l.0426 7.5867-1.6072.009zm14.7875-.1064q.5506-.1477 1.4465-.3185.9131-.171 2.1054-.1914.864-.0147 1.4556.2173.5914.2146.9964.6571.1195-.0885.376-.2484.2566-.1599.6344-.3046.3775-.162.8423-.2736.4645-.1289 1.0002-.138 1.0367-.0176 1.6986.2822.6617.2826 1.034.8294.3895.5465.5234 1.3047.1512.758.1664 1.6565l.0858 5.0456-1.607.0273-.0799-4.7q-.0135-.7949-.1096-1.3636-.0788-.569-.3099-.9454-.2138-.3766-.597-.543-.366-.1839-.9535-.1739-.8122.0138-1.344.2476-.5149.2162-.702.3922.1459.447.2241.9814.0782.5345.0882 1.122l.0858 5.0456-1.607.0273-.0799-4.7q-.0135-.7949-.1096-1.3636-.0961-.5688-.3272-.9451-.2138-.3766-.597-.543-.366-.1839-.9362-.1742-.242.004-.5181.0261-.2762.022-.5348.061-.2416.0214-.4484.0595-.2068.0381-.2756.0566l.129 7.5858-1.607.0273zm14.4227 3.9891q-.029-1.1921.2951-2.0816.3237-.9069.8795-1.5082.5559-.6012 1.2916-.913.7358-.3118 1.5132-.3308 1.8141-.0442 2.8094 1.0726.9948 1.0995 1.0512 3.4146.003.1036.007.2764.004.1555-.0101.2941l-6.1506.1498q.1377 1.3969.8637 2.1052.726.7084 2.2292.6718.8465-.0206 1.4133-.1727.5836-.1697.874-.3151l.2574 1.3421q-.29.1627-1.0286.3535-.7215.1905-1.6544.2132-1.1749.0286-2.0471-.296-.8554-.3421-1.4234-.9507-.568-.6085-.865-1.4483-.2802-.8575-.305-1.8769zm6.1464-1.0313q-.009-1.0888-.5961-1.766-.5701-.695-1.555-.671-.5528.0135-.9792.2486-.4096.2174-.695.5701-.2852.3527-.447.8061-.1446.453-.1851.9207zm3.8637-3.472q.5486-.1547 1.4595-.3374.911-.1827 2.1029-.2182 1.071-.032 1.7885.2579.717.2726 1.148.813.4479.5226.6433 1.2776.1953.7549.2226 1.6704l.1502 5.0442-1.6065.0478-.14-4.6987q-.0246-.8291-.163-1.4129-.1212-.5842-.391-.9393-.27-.355-.7065-.4976-.437-.1599-1.0762-.1409-.259.008-.535.0332-.2758.0255-.534.0678-.2412.0245-.4475.0652-.189.0402-.2748.0601l.2258 7.5835-1.6065.048zm11.3727-.6154l3.4025-.118.0468 1.3473-3.4026.1179.1436 4.1452q.0233.6736.1426 1.119.1186.4282.3348.6801.2156.2347.5301.3275.3145.093.729.0785.7254-.025 1.1518-.1955.4431-.1883.6134-.2634l.357 1.3192q-.2376.1293-.8361.323-.598.2109-1.3752.2378-.9154.0317-1.5277-.1719-.5956-.2214-.9745-.6752-.3788-.4538-.5576-1.122-.1621-.686-.1932-1.5842l-.2777-8.014 1.5967-.332zm4.9107 4.3432q-.0477-1.1916.2625-2.086.3094-.9118.8558-1.5218.5463-.6099 1.2771-.9332.7308-.3232 1.5079-.3543 1.8131-.0726 2.8258 1.0284 1.012 1.0837 1.1045 3.3977.004.1036.0111.2763.006.1554-.006.2942l-6.1475.246q.1596 1.3946.8966 2.0915.737.697 2.2394.6369.8461-.034 1.4104-.1949.581-.1789.869-.3288l.2784 1.338q-.2874.1671-1.023.3695-.7183.2018-1.6508.239-1.1743.047-2.0515-.2638-.8607-.3287-1.4381-.9283-.5775-.5995-.8876-1.4346-.2936-.853-.3344-1.8719zm6.1296-1.1275q-.0263-1.0885-.6238-1.7565-.581-.6859-1.5652-.6465-.5526.0221-.9753.264-.4062.2237-.6859.5808-.2797.3571-.4345.813-.1374.4552-.1705.9235zm7.0862-4.1387q.2071-.01.4677.0129.277.004.5383.0443.2606.0225.4701.0647.226.0241.3313.0539l-.2115 1.4111q-.193-.0603-.646-.1257-.4363-.0836-1.1269-.0516-.4488.0208-.8929.1451-.4276.1063-.564.1473l.3494 7.5441-1.6055.0744-.3983-8.5972q.5601-.2336 1.398-.4454.8372-.229 1.8902-.2779zm3.0556 3.0568q-.0884-1.5356.2926-2.7346.3983-1.2001 1.13-2.0212.748-.8394 1.7603-1.2958 1.0297-.4574 2.2029-.525 1.156-.0666 2.1968.2717 1.058.3372 1.8801 1.0861.8212.7317 1.3373 1.8792.5334 1.1464.6218 2.682.0884 1.5355-.3099 2.7355-.381 1.1991-1.1117 2.0375-.7317.821-1.744 1.2775-.9952.4555-2.1512.522-1.1732.0676-2.2485-.2686-1.058-.3373-1.8964-1.068-.8221-.749-1.3555-1.8953-.5162-1.1475-.6046-2.683zm1.7598-.1014q.0627 1.087.3904 1.9683.3267.864.8628 1.4564.5534.5913 1.2979.8946.7607.2851 1.6752.2325.9144-.0526 1.6202-.4222.7048-.3868 1.1694-1.0368.4818-.6509.7072-1.5467.2244-.913.1618-2-.0626-1.087-.3893-1.951-.3277-.8813-.881-1.4727-.5362-.5923-1.2797-.8784-.7445-.3033-1.659-.2507-.9144.0526-1.6365.4405-.7057.3695-1.1876 1.0204-.4645.65-.689 1.563-.2253.8959-.1628 1.9828zm14.987 3.8494q2.6174-.2228 2.465-2.0136-.047-.551-.3202-.9094-.2576-.377-.6771-.6188-.421-.259-.9552-.4217-.517-.1641-1.1028-.3224-.6734-.1681-1.2823-.3938-.6104-.243-1.0731-.5851-.4642-.3594-.768-.8713-.2865-.5132-.351-1.271-.1334-1.567.8595-2.536.9929-.9691 2.8698-1.1289 1.0849-.0923 1.9836.074.9145.1477 1.3512.388l-.418 1.4058q-.3807-.193-1.1215-.3381-.725-.1638-1.6721-.0831-.4822.041-.8867.1795-.4045.1385-.6968.3715-.2924.233-.454.5764-.1458.3246-.1091.755.041.4822.2583.7933.2172.311.5836.54.365.2118.8302.3803.4826.167 1.0512.3268.8013.244 1.4648.4997.6807.2543 1.1823.6452.5188.3894.8284.9701.3081.5635.38 1.4073.1333 1.567-.9486 2.509-1.0647.9405-3.1483 1.1178-.706.0601-1.3175.008-.5928-.0363-1.068-.1172-.4766-.0982-.8327-.2066-.3404-.1271-.5386-.2143l.382-1.4201q.4152.1901 1.248.3967.8328.2067 2.0037.107z" aria-label="CommenterOS" font-weight="400" font-size="17.2821" font-family="Ubuntu" letter-spacing="0" word-spacing="0"/><path d="M89.6664 226.7296a1.9833 59.6343 88.4607 0 0 59.571.3863 1.9833 59.6343 88.4607 0 0 59.6545-3.584 1.9833 59.6343 88.4607 0 0-59.571-.3863 1.9833 59.6343 88.4607 0 0-59.6545 3.584z" fill="none"/><path d="M93.5394 52.429c51.686-9.11 104.6497-15.345 161.8671-12.0095 13.8496 51.4071 11.2836 106.918 15.1424 160.8228-58.1072 7.539-112.4458 10.3674-165 10.9652-4.803-50.1405-13.4706-85.2084-12.0095-159.7785z" fill="#111" stroke="#000"/><g stroke="#f5ab28" fill="none"><path d="M175.976 79.7215c1.349-1.3349 2.698-2.6697 3.832-3.6335 1.1339-.9638 2.0526-1.5567 4.0832-2.383 2.0306-.8262 5.1734-1.886 8.9304-1.509 3.757.3772 8.1285 2.191 11.7502 5.4725 3.6216 3.2815 6.4933 8.0307 8.7442 12.7693 2.2509 4.7387 3.8805 9.4665 4.8013 12.9923.9208 3.5257 1.1325 5.8494 1.2244 8.5793.0919 2.7299.0639 5.8663-.7607 9.4078-.8245 3.5416-2.4456 7.4885-4.3795 10.6072-1.9338 3.1187-4.1802 5.4096-7.5053 7.0556-3.3252 1.646-7.7291 2.647-10.5235 2.8776-2.7943.2307-3.9788-.3088-5.1635-.8482" stroke-width=".685" stroke-linecap="round" stroke-linejoin="round"/><path d="M175.9754 79.7442l4.4209 55.7639" stroke-width="1.1416" stroke-linejoin="round"/><path d="M190.8778 141.09a9.8443 6.3519-4.299 0 1-9.3405 7.0719 9.8443 6.3519-4.299 0 1-10.2928-5.596 9.8443 6.3519-4.299 0 1 9.3405-7.072 9.8443 6.3519-4.299 0 1 10.2928 5.596zm-14.26-10.6659a1.9731 4.0723-4.299 0 1-1.6623 4.2088 1.9731 4.0723-4.299 0 1-2.2729-3.913 1.9731 4.0723-4.299 0 1 1.6623-4.2087 1.9731 4.0723-4.299 0 1 2.273 3.913z" stroke-width=".9133"/><path d="M186.8966 129.8645a2.0165 3.909-4.299 0 1-1.7178 4.0491 2.0165 3.909-4.299 0 1-2.3038-3.7468 2.0165 3.909-4.299 0 1 1.7178-4.0492 2.0165 3.909-4.299 0 1 2.3038 3.7469z" stroke-width="1.1753"/><path d="M175.976 79.7215c-1.5334-1.1182-2.0222-2.1186-3.2875-2.902-1.2653-.7834-2.2623-1.2323-4.3937-1.7457-2.1313-.5134-5.6354-.3102-9.2938.6243-3.6584.9346-7.043 3.1658-10.3192 6.7922-3.1157 3.4487-5.8093 8.4042-6.9795 13.5272-1.1683 5.1144-2.4217 9.9403-2.805 13.564-.3834 3.6239-.2454 5.953.072 8.666.3172 2.713.8138 5.81 2.1585 9.1884 1.3448 3.3785 3.2505 7.3112 5.9161 9.8332 2.7452 2.5973 4.7774 4.2273 8.3112 5.3577 3.534 1.1303 8.2026 1.9583 11 1.7686 2.7974-.1897 3.888-.9002 4.9787-1.6107" stroke-width=".685" stroke-linecap="round" stroke-linejoin="round"/><path d="M133.1439 108.9651c-3.2147 1.422-3.5535 3.9861-3.0668 4.197.4393.1904 3.2644-.1652 4.6627-2.4892m89.9801-12.7279c3.3911.9255 3.4059 4.4226 2.9562 4.704-.406.2538-1.9134.5838-3.6434-1.505" stroke-width=".685" stroke-linecap="round"/><path d="M163.0954 181.8666c-19.0206 4.7695-61.3429-9.1891-41.8798-68.7169.0393-.1202.2844-.1458.471-.3656m40.8586 69.0814c17.7087 4.5526 33.17-.0304 47.9716-4.9726" stroke-width="2.2832"/><path d="M209.9224 176.9654c28.212 4.4855 51.9718-35.953 26.762-75.2995-.423-.6602-.4932-1.0048-1.4638-1.5317" stroke-width="2.2832" stroke-linejoin="bevel"/><path d="M224.0327 101.144c25.6943 28.4618-6.6031 65.804-42.0628 47.0657m-47.2301-37.5368c-21.4092 24.0294 10.5457 59.8915 46.6562 37.6392" stroke-width="1.1416" stroke-linecap="round"/><path d="M140.2255 101.1455c-6.1917-16.6025-32.4583 3.4332-15.8775 13.7891m90.6317-21.3536c6.3836-16.03 31.5172-3.2975 17.4872 9.8814" stroke-width=".2283"/><path d="M212.3457 77.1167l8.8252 8.6904.4942 1.0131" stroke-width="2.5469" stroke-linejoin="round"/><path d="M144.0525 89.6336c-23.8704-20.5827 6.2316-48.205 30.3585-28.0481m34.2747 21.116c20.7463-22.4774-13.3084-44.6304-35.6108-21.243" stroke-width="2.2832"/><path d="M139.927 84.3403l-7.333 9.7417c-.0696.28-.118.8484-.118.8484" stroke-width="2.5469" stroke-linejoin="round"/><path d="M181.396 148.312l2.2538 24.0353m-48.3635-15.234c32.1843 9.2375 65.168 4.5265 95.164-9.0937" stroke-width="1.1416"/><path d="M148.0884 153.8142c.5892 5.8331 1.397 12.2695 2.229 17.3354m14.4039-16.0066c.3979 5.845 1.3436 12.2422 2.309 17.8144m33.9959-19.5956c.6973 4.8743 1.207 11.2808 1.455 16.4236m14.1981-20.349c.6973 4.8744 1.1849 10.4009 1.433 15.5436" stroke-width=".685"/><path d="M229.7918 136.9148c.4396 7.0017 1.1166 14.2861.8903 21.2276m-96.8655-14.1503c.612 6.9887 1.4082 16.9536 3.4762 23.37m-.2801-.3435c22.5684 11.4122 76.5234 6.1346 93.6941-9.3768" stroke-width="1.1416"/><path d="M210.5168 176.8929c4.032-1.928 7.8925-4.2063 11.5319-6.9358m-55.4077 12.6087c-4.275-1.3035-8.634-2.3404-12.4625-5.4438" stroke-width=".685"/><path d="M144.405 58.5758c14.9304-3.4868 25.8008 11.7746 31.571 21.1457m0 0c6.4657-20.6442 20.5997-27.8246 25.2948-26.9168" stroke-width="1.1416"/><path d="M213.9757 77.3147c3.1013-1.6383 14.2327-10.301 15.2994-6.8835.8707 2.7895-5.1675 2.6424-14.9788 7.1987m1.9628 1.7694c3.3353-1.9104 17.4372-8.2942 18.0939-4.1248.4546 2.8866-7.617 1.0876-17.631 4.6413m1.1828 1.5945c2.7312-1.4833 19.573-3.5774 20.2297.592.4546 2.8866-10.2723-1.512-19.7668-.0755M136.1331 87.4c-2.1286-3.3744-12.473-10.5727-14.1807-7.7563-1.5151 2.4987 5.4955 1.7208 13.9108 8.1159m-.6356 1.125c-2.5854-2.8749-17.7415-7.4212-18.6105-3.9448-.659 2.6363 7.2704-.5113 18.0831 4.5657m-1.2494 1.5074c-2.9626-1.595-20.387-2.4628-20.413 1.7579-.018 2.9222 10.5862-2.69 20.0325-1.178m40.6394-29.5883c1.3722 5.6496 1.1664 11.6104 2.1185 16.8798" stroke-width=".685"/><path d="M124.1957 114.8825c-.864.3807-1.6477 2.9356 1.8319 3.2271m107.158-15.3824c1.7385.2833 4.5742 2.414-.3342 3.1567" stroke-width=".2283"/></g><g style="line-height:1.25"><path d="M121.1452 183.7879q1.7852-.1138 3.398.2896.7234.1865.9824.17.2724-.0173 1.1247-.3863.28-.1136.5798-.1327.7632-.0487 1.5155.8064 1.2095 1.3733 1.3189 3.0904.0746 1.1718-.479 1.9324-.5399.7596-1.5074.8212-.7904.0504-1.59-.4733-.2429-.1625-1.2127-1.209-1.6162-1.7441-3.5648-1.62-1.7716.113-2.7384 1.4744-.9531 1.3605-.8133 3.5545.2075 3.2569 2.0158 5.4404.68.7913 1.584 1.2399.9036.435 1.762.3803.7086-.0451 1.1289-.5372.433-.5064.386-1.2422-.0416-.6542-.4406-.9024-.1569-.0995-.294-.1044-.1245-.0195-.7785.0222-.586.0373-1.0045-.3053-.406-.3573-.4424-.9297-.072-1.131 1.3965-1.7034 1.6159-.623 3.769-.7603 2.303-.1467 3.9005.2305 1.515.3687 1.5922 1.5814.0313.4906-.286.8803-.3181.376-.8589.4789-.4725.0985-.6129.258-.1275.1449-.242.7132-.4478 2.204-2.0583 3.7706-1.1085 1.0695-2.7355 1.7342-1.6132.6637-3.4393.78-2.9844.1903-5.5658-1.0272-2.6514-1.2403-4.1475-3.6762-1.2511-2.0274-1.4066-4.4666-.1571-2.4666 1.0368-4.773 1.2652-2.475 3.7311-3.932 2.1483-1.2862 4.9964-1.4677zm19.8035 4.1563q2.3712-.151 4.0964.943.913.585 1.3067 1.3945.4063.795.4984 2.2395l.1021 2.0322q.1346 2.1122.4744 2.72.169.2902.3105.3633.1414.0731.5819.1135t.4726.5445q.0416.6541-.4447 1.3966-.4727.7416-1.2735 1.2716-.9839.6646-2.1013.7358-1.4309.0912-2.3246-.837-.3088-.336-.5541-.3204-.2725.0174-.7006.3867-1.2993 1.0816-3.0299 1.1918-1.7852.1138-2.9377-.579-.7543-.4582-1.228-1.2352-.4745-.7907-.531-1.6765-.0903-1.4172.985-2.5803 1.6757-1.8308 5.2315-2.071.7904-.0504.9852-.2134.1941-.1765.1576-.7489-.092-1.4445-.4326-2.0658-.3415-.635-1.0229-.5916-.4088.026-.7202.2922-.2978.2652-.733.9497-1.1026 1.808-2.4244 1.8922-.6678.0426-1.1154-.3257t-.4885-1.0088q-.0416-.654.4345-1.3412.4898-.688 1.3579-1.2358 2.3832-1.4654 5.0678-1.6365zm-.4102 7.9484q-.5996.0382-1.018.5574-.4049.5184-.3614 1.1997.0416.6541.381 1.043.3387.3752.8565.3422 1.0902-.0695.973-1.9092-.0478-.7494-.2278-.998-.1664-.2493-.6033-.2351zm14.8067-8.77q.7222-.046.8851.1489.1765.194.3695 1.29.1064.5952.4607.5727.2725-.0174.4926-.4282.9817-1.773 2.7396-1.885 1.2401-.079 2.0816.6747.4068.3709.692.982.2844.5976.3208 1.17.0408.6405-.2155 1.341-.2573.6867-.7064 1.1532-.8192.887-2.0865.9677-.695.0443-1.1876-.1706-.479-.2158-1.2899-.9167-.3043-.268-.5496-.2523-.3816.0243-.4764.4682-.0822.4294.0055 1.8057.1311 2.0578.3288 2.7978.1215.4027.2954.5557.1867.1386.7558.2665 1.25.2899 1.3082 1.2028.0356.5588-.3327 1.0064-.3692.434-1.0146.612-1.2908.3558-3.8255.5173-2.412.1537-3.6926-.1888-1.1417-.3104-1.2016-1.2507-.0452-.7085.7367-1.3194.3787-.284.5156-.498.136-.2276.1672-.599.1389-1.254-.0747-4.6063-.039-.6132-.1918-.8635-.1537-.2637-.5729-.4013-.9918-.32-1.0379-1.0421-.0416-.6541.5966-1.16.6372-.5195 2.175-1.0826 2.0585-.7607 3.5295-.868zm16.9517 1.3828l1.6898-.1077q.4224-.027.6084.098.1985.1105.1903.412l-.0056 1.6287q.004.4922-.11.6363-.1149.1305-.5372.1575-.0954.006-.4515.0013-.2461.002-.4097.0123-.5723.0365-.7524.4312-.181.381-.1141 1.4301.0912 1.431.467 2.3922.1497.4146.3943.6042.2439.176.7849.292 1.2218.278 1.2834 1.2455.0652 1.022-1.3098 1.5611-1.3614.5383-4.55.7415-4.7287.3013-4.8485-1.5792-.0295-.4633.1473-.6936.1905-.231.84-.5597.7014-.373.7948-1.2684.1467-1.3503.0494-2.8765-.0434-.6813-.3052-.9246-.249-.2577-.875-.2042-.7359.0469-.9447-.0083-.2096-.0688-.2142-.3558l-.0004-1.724q.0003-.424.1033-.5265.1157-.1167.6454-.1779.5025-.0593.473-.5227-.0122-.1908-.4236-.8488-.6988-1.091-.7709-2.222-.1059-1.6627.972-2.7848 1.5779-1.6467 4.712-1.8464 2.5757-.1641 4.1928.9505 1.2455.8648 1.3236 2.0913.0565.8857-.4904 1.5363-.5478.6369-1.4199.6925-.9812.0625-1.924-.5615-.2293-.1634-1.1042-1.0106-.626-.5895-1.212-.5522-.3815.0243-.6367.3142-.255.29-.2299.685.0686 1.0767 2.1907 2.173.6513.3415.8831.5457.2457.2032.448.587.1058.1576.4465.1359zm11.4407-2.33l.5045 7.9175q.06.9403.2512 1.3659.205.4248.7462.7597.4417.273.5918.4823.1629.1948.1837.5219.112 1.7579-4.344 2.0418-2.3984.1529-3.8263-.1393-.4857-.1059-.8072-.4275-.3079-.3224-.3356-.7585-.0235-.368.1134-.5818.1369-.214.7215-.7027.4024-.3404.5344-1.0604.132-.7198.0426-2.1235-.0287-.4497-.175-1.6717-.1335-1.2367-.1739-1.4393-.1172-.5536-.8177-.81-.8684-.314-.9144-1.0363-.0547-.8584 1.0221-1.3512 1.489-.6833 3.2072-1.2032 1.7182-.52 2.6722-.5808.7495-.0478.8033.7971zm-3.0785-5.7967q1.1855-.0756 1.9092.3298.7228.3918.7705 1.1413.0669 1.0493-.9433 1.7294-1.601 1.0735-3.9584 1.2237-.9948.0634-1.6051-.2808-.8217-.4402-.8772-1.3124-.0747-1.1719 1.559-1.9464 1.66-.79 3.1453-.8846zm18.5048 11.3677l-6.4048.4081q-.4225.027-.399.3949.0564.8858 1.0608 1.6153 1.017.7152 2.1208.6449.654-.0417 1.4288-.3374.7875-.3102 1.2819-.7111.4425-.3566.715-.374.3543-.0225.7228.3919.3685.4144.398.8776.0626.9812-1.1058 1.9723-2.0633 1.7598-4.8978 1.9404-2.8617.1824-4.9027-1.357-.9924-.7576-1.6795-1.8769-.902-1.4886-1.0106-3.192-.1459-2.2893 1.1277-4.204 1.0985-1.6572 2.9023-2.552 1.3527-.6745 2.9743-.7778 2.5891-.165 4.4953 1.1912.96.6777 1.5829 1.6505.7134 1.1039.783 2.194.0563.8858-.2751 1.4816-.3324.5822-.9183.6195zm-6.2128-2.1628l1.3762-.0877q.8722-.0556.821-.8595-.0469-.7358-.4989-1.1723-.452-.4364-1.1332-.393-.7632.0486-1.1611.676-.3732.5848-.3367 1.1572.026.4087.2273.5601.2148.1506.7054.1193zm15.9292-3.1768l.2787 4.3743q.185 2.9027.2971 3.3744.1258.471.7282.6924.5182.1859.6938.3663.1893.1795.212.5338.0286.4497-.275.8385-.29.388-.812.5717-.962.3623-3.2922.5108-2.63.1676-3.7182-.16-.5018-.1458-.8387-.4938-.3377-.3616-.3637-.7704-.0209-.327.1313-.5146.1659-.1884.7226-.4702.5167-.2656.5734-1.3091.105-1.7853-.1033-5.0559-.2119-3.325-.4634-4.2667-.2516-.9418-1.0443-1.3565-.5932-.2906-.8294-.5629-.2235-.2867-.2504-.7092-.0426-.6677.5666-1.1991.6084-.545 1.985-1.057.9221-.346 2.4046-.7004 1.4824-.3544 2.1639-.3979 1.0765-.0685 1.1616 1.2668.0277.4362-.0086 2.012-.0217 2.4505.0804 4.4827zm17.915-7.8734l.7928 12.4417q.0677 1.0629.1686 1.3575.1145.2937.5415.5538.5123.3095.6923.558.1937.2476.2171.6156.0695 1.09-2.088 1.8022-1.9438.6302-3.9198.756-.4362.0279-.581-.0998-.1305-.1148-.2026-.6027-.1125-.6908-.5349-.6638-.2316.0147-.6962.4549-1.3179 1.2195-3.0212 1.328-2.1123.1347-3.9019-1.3248-1.0548-.8768-1.746-2.0641-.9193-1.5424-1.0235-3.1777-.1225-1.9214.8266-3.7742.8762-1.7115 2.5095-2.705 1.3703-.8261 2.7467-.9139 1.5808-.1007 2.8797.528.2113.096.334.0882.436-.0278.3614-1.1997-.0322-.5042-.294-.7474-.249-.2578-.8744-.4095-.8759-.2179-.9193-.8993-.0634-.9948 1.877-1.6793 3.4269-1.1899 4.6125-1.2654 1.1719-.0747 1.243 1.0427zm-6.9628 7.326q-.8857.0565-1.3437 1.0298-.615 1.298-.4848 3.342.118 1.8533.8456 2.751.5205.651 1.3381.5989.8857-.0565 1.2158-1.1036.3429-1.0618.197-3.3512-.1337-2.0985-.655-2.7631-.4026-.5217-1.113-.5038z" style="-inkscape-font-specification:'Cooper Black, '" font-family="Cooper Black" fill="#9830e2" aria-label="Garfield" font-weight="400" font-size="27.9651" letter-spacing="0" word-spacing="0"/></g><g style="line-height:1.25"><path d="M233.9025 194.216q.0256.3805-.2092.6795t-.6718.3283-.7096-.2354q-.2727-.2649-.2982-.6454-.0256-.3807.2091-.6796.2348-.299.6717-.3284.437-.0294.7097.2354.2727.265.2983.6455zm5.1667.5871q-.888.0598-1.5836-.1767-.6815-.2374-1.1808-.7135-.4851-.4772-.7572-1.1527-.2728-.6897-.3297-1.5354-.0568-.8459.1353-1.5668.2064-.7218.6233-1.2596.416-.5519 1.0456-.8774.6426-.3405 1.446-.3945.4934-.0332.9925.0182.499.0515.9624.2044l-.2212 1.1334q-.3054-.121-.7058-.179-.3863-.059-.8232-.0297-1.0996.074-1.6452.8044-.5314.7296-.4424 2.0546.0398.592.1998 1.077.1742.4838.4797.8173.3197.3325.784.4995.4635.1529 1.112.1093.5214-.035.9378-.1622.4162-.127.6483-.256l.2572 1.0873q-.108.078-.3148.1627-.2078.0706-.4726.131-.2641.0743-.5723.1234-.2932.0622-.575.0811zm9.3864-4.4824q.0587.874-.1476 1.5958-.2064.7218-.6374 1.2605-.4169.5378-1.0323.8624-.6163.3105-1.3634.3607t-1.3994-.175q-.6534-.2392-1.1526-.7154-.4852-.4772-.7863-1.165t-.3599-1.5616q-.0578-.8599.1486-1.5817.2054-.736.6223-1.2738.431-.5388 1.0474-.8492.6153-.3245 1.3625-.3747t1.4004.189q.6523.2252 1.1374.7022.4993.4763.8014 1.1782.301.6877.3589 1.5476zm-1.3673.0919q-.0834-1.2405-.6956-1.9215-.599-.696-1.5575-.6316t-1.4731.8354q-.5015.7558-.418 1.9963t.6824 1.9366q.6121.6808 1.5706.6164t1.46-.8203q.5146-.7708.4312-2.0114zm2.9796-3.6695q.4434-.1431 1.1679-.3192.7386-.1771 1.7113-.2425.7048-.0474 1.1973.1177.4916.1511.8404.4958.094-.0771.2968-.2182.203-.1412.5055-.2748.3016-.1476.6765-.2578.374-.1243.811-.1536.8457-.0569 1.3984.1608.5518.2037.878.6348.3406.4302.481 1.0438.1544.6127.2037 1.3457l.2767 4.1161-1.311.0882-.2578-3.8342q-.0436-.6485-.1452-1.1088-.0876-.4615-.2918-.7592-.19-.299-.5096-.419-.3064-.1351-.7857-.1029-.6625.0446-1.0872.2572-.4115.1976-.557.349.1374.3589.2231.792.0858.4333.118.9125l.2767 4.1161-1.311.0882-.2577-3.8342q-.0436-.6485-.1453-1.1088-.1017-.4605-.3059-.7582-.19-.299-.5095-.419-.3065-.1351-.7717-.1039-.1973.0133-.422.0425-.2245.0293-.434.0717-.1964.0274-.3637.067-.1672.0396-.2227.0574l.416 6.1883-1.311.0881z" style="-inkscape-font-specification:Ubuntu" font-family="Ubuntu" aria-label=".com" font-weight="400" font-size="14.128" letter-spacing="0" word-spacing="0" fill="#9830e2"/></g><path d="M348.8717 25.7993h264.731v114.3512h-264.731z" fill="#fff" stroke="#000" stroke-width="5" stroke-linejoin="round"/><g style="line-height:1.25;-inkscape-font-specification:Ubuntu;text-align:center"><path d="M391.1542 43.2956h2.2899v16.5112h-2.29zm8.2748 4.1218h4.6504v1.8585h-4.6504v5.718q0 .9293.1416 1.5487.1417.5957.425.953.2831.3336.708.4766.425.143.9916.143.9914 0 1.5816-.2145.6138-.2383.8498-.3335l.425 1.8346q-.3306.1667-1.1568.405-.8262.262-1.8885.262-1.2512 0-2.0773-.3097-.8027-.3335-1.2984-.9768-.4957-.6433-.7082-1.5726-.1888-.953-.1888-2.1919V43.9626l2.1954-.3811zm9.545-5.7182v1.1913q0 1.1674-.1417 2.454-.1415 1.2629-.354 2.5257h-1.2984q-.2124-1.2628-.354-2.5257-.1417-1.2865-.1417-2.4778v-1.1674zm6.4264 16.5113q1.3456 0 1.983-.3573.6609-.3575.6609-1.1437 0-.81-.6373-1.2865-.6374-.4766-2.101-1.0723-.7081-.2858-1.3692-.5717-.6373-.3097-1.1094-.7148-.4721-.405-.7555-.977-.2832-.5717-.2832-1.4056 0-1.644 1.204-2.597 1.2038-.977 3.2812-.977.5193 0 1.0387.0716.5193.0476.9678.143.4485.0714.779.1667.3541.0953.543.1668l-.4013 1.9061q-.3542-.1907-1.1095-.3813-.7554-.2143-1.8177-.2143-.9207 0-1.6053.3811-.6845.3575-.6845 1.1437 0 .405.1417.7148.1652.3097.472.5717.3305.2383.8026.4527.4722.2145 1.1332.4527.8734.3336 1.558.6671.6846.3098 1.1566.7387.4958.4289.7555 1.0484.2597.5956.2597 1.4772 0 1.7154-1.2748 2.597-1.2512.8815-3.5882.8815-1.6288 0-2.5494-.2859-.9208-.262-1.2512-.405l.4013-1.9062q.3778.143 1.204.429.8261.2858 2.1953.2858zm23.2235-6.5282h2.2898v7.7196q-.2833.0953-.8261.2143-.5194.1192-1.2276.2383-.6847.1192-1.5108.1906-.8262.0954-1.6762.0954-1.7232 0-3.1396-.5719-1.4164-.5718-2.4314-1.6678t-1.5817-2.6923q-.5428-1.5964-.5428-3.6692t.6137-3.6692q.6374-1.6202 1.6996-2.7162 1.0623-1.096 2.4787-1.6677 1.44-.5719 3.0688-.5719 1.1095 0 1.9594.143.8734.143 1.487.3335.614.1907.9916.3813.4013.1905.543.2859l-.7318 1.9299q-.6847-.4527-1.8177-.7386-1.1331-.3097-2.3135-.3097-1.2512 0-2.2897.4526-1.0151.4527-1.747 1.3105-.708.8577-1.1094 2.0967-.4013 1.2151-.4013 2.74 0 1.4772.3304 2.6923.3542 1.215 1.0387 2.0967.7082.8576 1.7233 1.3341 1.0387.4766 2.4314.4766.9914 0 1.676-.0953.7083-.1192 1.0152-.2144zm9.888 6.5282q.779 0 1.3692-.0238.6138-.0476 1.015-.143v-3.693q-.236-.119-.7789-.1906-.5194-.0952-1.2748-.0952-.4957 0-1.0622.0714-.543.0716-1.0151.3098-.4486.2145-.7554.6194-.3069.3813-.3069 1.0246 0 1.1913.7555 1.6678.7553.4526 2.0537.4526zm-.1888-11.1028q1.3219 0 2.219.3574.9207.3336 1.4635.9768.5666.6195.8027 1.501.236.8578.236 1.9062v7.7433q-.2832.0478-.8026.143-.4957.0715-1.1331.143-.6373.0715-1.3927.1191-.7318.0715-1.4636.0715-1.0387 0-1.9122-.2145-.8733-.2143-1.5108-.667-.6373-.4766-.9913-1.239-.3542-.7625-.3542-1.8345 0-1.0247.4013-1.7632.425-.7386 1.1332-1.1913.708-.4527 1.6523-.667.9443-.2146 1.983-.2146.3305 0 .6846.0477.354.0238.661.0953.3304.0476.5665.0952.236.0477.3305.0716v-.6195q0-.548-.118-1.0722-.118-.548-.425-.953-.3069-.429-.8497-.6671-.5194-.2622-1.3692-.2622-1.086 0-1.9121.1668-.8027.143-1.204.3098l-.2597-1.8346q.425-.1906 1.4164-.3574.9915-.1906 2.1482-.1906zm12.8769.0477q.2833 0 .6373.0476.3778.0238.7318.0953.3542.0477.6375.1191.3068.0477.4485.0953l-.3778 1.93q-.2597-.0954-.8734-.2145-.5902-.143-1.5344-.143-.6138 0-1.2276.143-.59.1191-.779.1667v10.412h-2.1954V47.9416q.779-.2859 1.9358-.5242 1.1567-.262 2.5967-.262zm9.3886-5.8374q.8263 0 1.4164.119.5902.0955.8499.1908l-.3069 1.906q-.2598-.0953-.7082-.1906-.4485-.1192-1.086-.1192-1.5344 0-2.148.8578-.6139.8338-.6139 2.2634v1.0722h4.7213v1.8585h-4.7213v10.531h-2.1954V46.2975q0-2.3825 1.1568-3.6691 1.1566-1.3104 3.6353-1.3104zm6.6098 18.489h-2.1954V47.4173h2.1954zm-1.1095-14.6292q-.5902 0-1.015-.3812-.4014-.405-.4014-1.0722 0-.667.4014-1.0483.4248-.405 1.015-.405.5902 0 .9915.405.4249.3812.4249 1.0483t-.425 1.0722q-.4013.3812-.9913.3812zm4.1919 8.4582q0-1.644.4722-2.8592.4721-1.239 1.2512-2.049.7789-.81 1.794-1.215t2.0773-.4051q2.4787 0 3.8007 1.5725 1.3219 1.5487 1.3219 4.7413v.3813q0 .2144-.0236.405h-8.4038q.1416 1.9299 1.1094 2.9306.968 1.0006 3.0217 1.0006 1.1566 0 1.9357-.1906.8026-.2144 1.204-.405l.3068 1.8585q-.4013.2143-1.4164.4526-.9914.2383-2.2662.2383-1.6053 0-2.7856-.4766-1.1566-.5003-1.9121-1.358-.7553-.8577-1.133-2.0252-.3541-1.1913-.3541-2.597zm8.4275-1.215q.0236-1.5011-.7554-2.4542-.7554-.9768-2.101-.9768-.7554 0-1.3455.3097-.5666.286-.968.7624-.4012.4765-.6373 1.096-.2124.6194-.2832 1.2628zm9.126 7.6241q-2.03-.0476-2.8799-.8815-.8499-.8339-.8499-2.597V41.6992l2.1955-.3812v14.8912q0 .548.0944.9054.0945.3573.3069.5718.2124.2144.5666.3336.354.0952.8734.1667zm10.704-10.0068q-.4013-.3335-1.1567-.6434-.7555-.3097-1.6524-.3097-.9443 0-1.6289.3575-.6609.3335-1.086.953-.4247.5957-.6137 1.4296-.1888.8338-.1888 1.787 0 2.168 1.0623 3.3593 1.0624 1.1674 2.8328 1.1674.897 0 1.4871-.0713.6139-.0955.9443-.1907zm0-8.3391l2.1954-.3812v18.1315q-.7554.2145-1.9358.429-1.1803.2143-2.7147.2143-1.4164 0-2.5494-.4526-1.1332-.4527-1.9357-1.2867-.8026-.8338-1.2512-2.0251-.4249-1.2152-.4249-2.7162 0-1.4296.3541-2.6209.3777-1.1913 1.086-2.049.708-.8577 1.7232-1.3342 1.0386-.4766 2.3606-.4766 1.0623 0 1.865.2859.8261.286 1.2274.548zm8.589 16.821q0 .6434-.4248 1.12-.425.4765-1.1568.4765t-1.1567-.4765q-.425-.4766-.425-1.12 0-.6432.425-1.1197.425-.4765 1.1566-.4765.732 0 1.1569.4765.4248.4765.4248 1.1198zm8.5477 1.5726q-1.4872 0-2.6203-.4766-1.1095-.4765-1.8885-1.3341-.7555-.8578-1.1331-2.0253-.3778-1.1913-.3778-2.6208 0-1.4296.4014-2.6209.425-1.1913 1.1803-2.049.7555-.8815 1.8413-1.358 1.1095-.5003 2.455-.5003.8262 0 1.6525.1428.8262.143 1.5817.4527l-.4957 1.8823q-.4957-.2383-1.1568-.3812-.6374-.143-1.3692-.143-1.8413 0-2.8328 1.1675-.9678 1.1674-.9678 3.4071 0 1.0006.2124 1.8345.2361.834.7082 1.4296.4957.5957 1.2512.9293.7554.3097 1.8413.3097.8734 0 1.5817-.1668.708-.1667 1.1094-.3574l.3069 1.8585q-.1888.119-.543.2382-.354.0953-.8026.1668-.4485.0953-.9679.143-.4957.0714-.9678.0714zm16.1507-6.4806q0 1.4771-.4249 2.6684-.4248 1.1913-1.2039 2.0491-.7554.8578-1.8176 1.3342-1.0623.4528-2.3134.4528-1.2512 0-2.3135-.4527-1.0623-.4765-1.8412-1.3343-.7555-.8578-1.1804-2.049-.425-1.1914-.425-2.6685 0-1.4534.425-2.6447.425-1.2151 1.1804-2.0729.779-.8577 1.8412-1.3104 1.0623-.4765 2.3135-.4765 1.251 0 2.3133.4765 1.0623.4527 1.8177 1.3104.779.8578 1.204 2.0729.425 1.1913.425 2.6447zm-2.2897 0q0-2.0967-.9443-3.3119-.9207-1.239-2.5258-1.239-1.6053 0-2.5496 1.239-.9206 1.2152-.9206 3.312t.9207 3.3355q.9442 1.2151 2.5495 1.2151 1.6051 0 2.5258-1.215.9443-1.2391.9443-3.3357zm5.3785-5.8373q.7554-.1907 1.983-.4051 1.2511-.2144 2.88-.2144 1.1802 0 1.9827.3335.8027.3098 1.3457.9292.1652-.1191.5193-.3335.3541-.2145.8734-.405.5194-.2145 1.1568-.3574.6373-.1668 1.3691-.1668 1.4164 0 2.3135.4288.897.405 1.3927 1.1675.5194.7625.6846 1.8107.1888 1.0484.1888 2.2873v6.9571h-2.1954v-6.4805q0-1.096-.118-1.8823-.0945-.7862-.4013-1.3105-.2832-.524-.8026-.7624-.4957-.262-1.2983-.262-1.1096 0-1.8414.3097-.708.286-.9678.5242.1889.6194.2833 1.358.0945.7386.0945 1.5487v6.9571h-2.1954v-6.4805q0-1.096-.118-1.8823t-.425-1.3105q-.2833-.524-.8026-.7624-.4957-.262-1.2748-.262-.3304 0-.708.0238-.3778.0238-.7319.0715-.3304.0238-.6137.0715-.2833.0476-.3778.0714V59.807h-2.1954zm22.6462 9.3158q.0236.1907.0236.3812v.3575q0 1.501-.4485 2.9543-.425 1.4773-1.1804 2.8115l-1.6997-.548q.5903-1.2151.7791-2.4779.1888-1.2389.1888-2.335 0-.3097-.0235-.5956 0-.286-.0236-.548zm-161.7889 20.657q.4014-.262 1.204-.548.8261-.2858 1.8885-.2858 1.3218 0 2.337.4765 1.0387.4765 1.747 1.3342.708.8578 1.0622 2.049.3776 1.1914.3776 2.621 0 1.5009-.4485 2.7161-.425 1.1913-1.2275 2.0252-.8027.8338-1.9357 1.2866-1.1331.4527-2.5495.4527-1.5344 0-2.7147-.2145-1.1804-.2144-1.9358-.4288V71.4815l2.1954-.3811zm0 9.9117q.3305.0953.9208.1905.6136.0716 1.5106.0716 1.7705 0 2.8329-1.1674 1.0623-1.1914 1.0623-3.3595 0-.9531-.189-1.787-.1888-.8338-.6137-1.4296-.425-.6195-1.1095-.953-.6609-.3573-1.6052-.3573-.897 0-1.6524.3097-.7555.3097-1.1567.6433zm21.5017 1.5725q-.7555.1906-2.0066.405-1.2275.2145-2.8563.2145-1.4164 0-2.3842-.405-.968-.429-1.5581-1.1914-.59-.7624-.8498-1.787-.2596-1.0483-.2596-2.311v-6.9571h2.1954v6.4806q0 2.2634.7082 3.2402.708.977 2.3842.977.354 0 .7317-.024.3778-.0238.7082-.0476.3305-.0476.5903-.0714.2832-.0477.4011-.0953V77.1998h2.1955zm5.836-12.0321h4.6504v1.8584h-4.6505v5.7182q0 .9293.1417 1.5487.1415.5958.4248.9531.2833.3335.7082.4765.425.143.9914.143.9915 0 1.5817-.2145.6138-.2382.8498-.3336l.425 1.8346q-.3305.1668-1.1567.405-.8262.2622-1.8885.2622-1.2512 0-2.0774-.3097-.8026-.3336-1.2983-.977-.4957-.6432-.7082-1.5724-.1889-.9531-.1889-2.192V73.745l2.1954-.3812zm12.8844.3574q.7555-.1906 1.983-.405 1.2512-.2145 2.88-.2145 1.1803 0 1.983.3336.8025.3097 1.3455.9293.1653-.1193.5193-.3337.3542-.2145.8735-.405.5193-.2144 1.1566-.3574.6374-.1668 1.3692-.1668 1.4165 0 2.3135.429.897.4049 1.3927 1.1673.5193.7625.6846 1.8108.1889 1.0483.1889 2.2873v6.9572h-2.1954v-6.4807q0-1.096-.118-1.8823-.0945-.7862-.4013-1.3103-.2833-.5242-.8027-.7625-.4957-.262-1.2983-.262-1.1095 0-1.8413.3097-.7082.286-.9678.5241.1888.6195.2833 1.358.0944.7387.0944 1.5488v6.9572h-2.1954v-6.4807q0-1.096-.118-1.8823t-.425-1.3103q-.2833-.5242-.8025-.7625-.4957-.262-1.2748-.262-.3305 0-.7082.0238-.3777.0238-.7318.0714-.3305.024-.6138.0715-.2832.0477-.3776.0715v10.4596h-2.1955zm24.4876 10.4357q.779 0 1.3691-.0238.6138-.0476 1.0151-.143v-3.693q-.236-.119-.779-.1906-.5194-.0952-1.2747-.0952-.4957 0-1.0623.0714-.543.0715-1.0151.3097-.4485.2145-.7554.6195-.3069.3812-.3069 1.0245 0 1.1913.7555 1.6678.7553.4527 2.0537.4527zm-.1888-11.1029q1.3218 0 2.219.3575.9206.3335 1.4635.9768.5665.6194.8026 1.501.236.8578.236 1.9061v7.7434q-.2831.0477-.8025.143-.4957.0715-1.1332.1429-.6373.0715-1.3927.1192-.7318.0715-1.4636.0715-1.0387 0-1.9121-.2145-.8734-.2144-1.5108-.667-.6374-.4766-.9914-1.239-.3542-.7625-.3542-1.8347 0-1.0244.4014-1.7631.4249-.7385 1.1331-1.1912.7081-.4527 1.6523-.6671.9444-.2145 1.983-.2145.3305 0 .6846.0476.3541.0238.661.0954.3305.0476.5666.0952.236.0477.3304.0715v-.6194q0-.548-.118-1.0722-.118-.548-.425-.953-.3068-.429-.8497-.6672-.5194-.262-1.3693-.262-1.0858 0-1.912.1667-.8027.143-1.204.3097l-.2596-1.8345q.425-.1906 1.4164-.3574.9914-.1907 2.148-.1907zm16.2761 2.9307q-.4013-.3336-1.1567-.6433-.7555-.3097-1.6524-.3097-.9443 0-1.6289.3573-.661.3335-1.086.953-.4248.5958-.6136 1.4296-.189.8339-.189 1.787 0 2.168 1.0624 3.3595 1.0623 1.1674 2.8328 1.1674.897 0 1.4871-.0716.6139-.0952.9443-.1905zm0-8.3392l2.1953-.3811v18.1315q-.7554.2144-1.9356.4288-1.1803.2145-2.7148.2145-1.4164 0-2.5495-.4527t-1.9357-1.2866q-.8025-.8339-1.2512-2.0252-.4248-1.2151-.4248-2.7161 0-1.4296.354-2.621.3778-1.1912 1.086-2.0489.7081-.8578 1.7232-1.3343 1.0387-.4765 2.3607-.4765 1.0622 0 1.865.2859.826.2859 1.2274.548zm5.3078 11.9368q0-1.644.472-2.859.4722-1.239 1.2512-2.0491.779-.81 1.794-1.2151t2.0774-.405q2.4787 0 3.8007 1.5725 1.3218 1.5486 1.3218 4.7413v.3812q0 .2144-.0236.4051h-8.4037q.1416 1.93 1.1094 2.9305.968 1.0007 3.0217 1.0007 1.1566 0 1.9357-.1905.8026-.2145 1.204-.405l.3068 1.8583q-.4014.2145-1.4164.4527-.9914.2383-2.2662.2383-1.6053 0-2.7856-.4765-1.1566-.5003-1.9121-1.358-.7554-.8578-1.133-2.0253-.3541-1.1913-.3541-2.597zm8.4274-1.215q.0236-1.501-.7554-2.4542-.7555-.9768-2.101-.9768-.7555 0-1.3455.3097-.5666.286-.968.7626-.4012.4764-.6373 1.0958-.2124.6195-.2833 1.2629zm20.9166 7.386q-.661-1.7154-1.4164-3.9075-.7317-2.2158-1.3455-4.5984-.6137 2.3826-1.3456 4.5984-.7318 2.192-1.3928 3.9075h-1.9121q-1.0859-2.454-2.1246-5.599-1.0386-3.1451-1.9593-6.7904h2.3607q.236 1.1197.5666 2.4302.3304 1.3103.6845 2.6208.3777 1.3104.779 2.5255.4013 1.2152.7555 2.1205.4012-1.1197.779-2.3588.4013-1.2628.7553-2.5254.354-1.2867.661-2.5018.3304-1.2389.5665-2.3111h1.8177q.2125 1.0722.5194 2.3111.3069 1.2151.661 2.5018.354 1.2627.7317 2.5254.4014 1.239.8027 2.3588.354-.9053.7318-2.1205.4012-1.215.779-2.5255.3776-1.3105.7082-2.6208.3305-1.3105.5665-2.4302h2.2663q-.9208 3.6453-1.9595 6.7903-1.0386 3.145-2.1245 5.599zm10.5129 0h-2.1953V77.1998h2.1953zm-1.1094-14.629q-.5901 0-1.015-.3814-.4014-.405-.4014-1.0721 0-.667.4013-1.0483.425-.4051 1.0151-.4051t.9914.405q.425.3812.425 1.0484 0 .667-.425 1.0721-.4012.3813-.9914.3813zm6.9615 2.2395h4.6504v1.8584h-4.6504v5.7182q0 .9293.1417 1.5487.1416.5958.425.9531.2832.3335.7081.4765.425.143.9914.143.9915 0 1.5817-.2145.6137-.2382.8498-.3336l.425 1.8346q-.3305.1668-1.1567.405-.8263.2622-1.8886.2622-1.2511 0-2.0774-.3097-.8025-.3336-1.2982-.977-.4957-.6432-.7083-1.5724-.1888-.9531-.1888-2.192V73.745l2.1953-.3812zm7.4442 12.3895V71.4816l2.1954-.3812v6.3377q.6137-.2383 1.2983-.3574.7082-.143 1.3928-.143 1.4636 0 2.4314.429.968.4049 1.5344 1.1673.5902.7386.8262 1.787.236 1.0483.236 2.3111v6.9572h-2.1953v-6.4807q0-1.1436-.1652-1.9537-.1416-.8101-.4957-1.3104-.3541-.5003-.9443-.7148-.5902-.2382-1.4636-.2382-.354 0-.7318.0476-.3777.0476-.7318.1191-.3305.0477-.6138.1192-.2596.0714-.3776.119v10.2929zM401.3933 111.247h2.2897v7.7197q-.2832.0952-.8261.2143-.5194.1192-1.2275.2382-.6847.1192-1.511.1907-.826.0954-1.676.0954-1.7231 0-3.1396-.5719-1.4164-.5718-2.4314-1.6678t-1.5816-2.6924q-.543-1.5963-.543-3.6692 0-2.0727.6138-3.6691.6374-1.6202 1.6996-2.7161 1.0623-1.0961 2.4787-1.6679 1.44-.5718 3.0688-.5718 1.1095 0 1.9593.143.8734.143 1.4872.3335.6138.1906.9915.3813.4013.1905.543.2859l-.7318 1.9299q-.6847-.4528-1.8177-.7386-1.1331-.3097-2.3135-.3097-1.2512 0-2.2897.4527-1.0151.4526-1.747 1.3103-.7081.8578-1.1095 2.0967-.4012 1.2151-.4012 2.74 0 1.4772.3305 2.6924.354 1.215 1.0386 2.0967.7082.8576 1.7233 1.3341 1.0387.4765 2.4314.4765.9914 0 1.676-.0953.7083-.119 1.0152-.2144zm9.888 6.5284q.779 0 1.3692-.0239.6138-.0477 1.015-.143v-3.693q-.236-.1191-.7789-.1906-.5194-.0954-1.2748-.0954-.4957 0-1.0622.0716-.543.0714-1.0151.3098-.4485.2144-.7554.6194-.3069.3812-.3069 1.0246 0 1.1913.7554 1.6677.7555.4528 2.0538.4528zm-.1889-11.103q1.322 0 2.219.3574.9208.3336 1.4636.977.5666.6194.8027 1.5009.236.8577.236 1.906v7.7435q-.2833.0477-.8026.143-.4957.0715-1.133.143-.6374.0715-1.3928.119-.7318.0714-1.4636.0714-1.0387 0-1.9122-.2144t-1.5107-.667q-.6374-.4766-.9914-1.239-.3542-.7625-.3542-1.8345 0-1.0247.4013-1.7632.425-.7386 1.133-1.1913.7083-.4527 1.6525-.6672.9443-.2143 1.983-.2143.3305 0 .6845.0476.3542.0238.661.0953.3305.0476.5666.0954.236.0476.3305.0715v-.6196q0-.548-.118-1.0721-.1181-.548-.425-.953-.3069-.429-.8498-.6671-.5193-.2622-1.3692-.2622-1.0858 0-1.9121.1667-.8026.1431-1.204.3099l-.2595-1.8346q.4248-.1907 1.4164-.3574.9914-.1906 2.148-.1906zm12.877.0477q.2833 0 .6373.0476.3778.0238.7318.0954.354.0476.6374.1191.3068.0476.4485.0953l-.3777 1.93q-.2597-.0955-.8734-.2145-.5903-.143-1.5344-.143-.6138 0-1.2276.143-.5902.1191-.779.1667v10.412h-2.1954v-11.8654q.779-.2858 1.9357-.5241 1.1568-.2621 2.5968-.2621zm9.3886-5.8374q.9679 0 1.6524.143.7082.143.9915.2621l-.4013 1.9061q-.2833-.143-.8026-.2622-.5194-.1429-1.2748-.1429-1.5344 0-2.1481.8578-.6138.8339-.6138 2.2635v1.0721h4.7212v1.8584h-4.7212v10.531h-2.1954v-13.5093q0-2.3826 1.1567-3.6691 1.1568-1.3105 3.6354-1.3105zm14.5696 0q.9678 0 1.6523.143.7082.143.9915.2621l-.4012 1.9061q-.2833-.143-.8027-.2622-.5193-.1429-1.2747-.1429-1.5345 0-2.1482.8578-.6138.8339-.6138 2.2635v1.0721h4.7213v1.8584h-4.7213v10.531h-2.1954v-13.5093q0-2.3826 1.1567-3.6691 1.1567-1.3105 3.6354-1.3105zm8.4916 16.8927q.779 0 1.3691-.0239.6138-.0477 1.015-.143v-3.693q-.236-.1191-.7789-.1906-.5194-.0954-1.2748-.0954-.4957 0-1.0622.0716-.543.0714-1.0151.3098-.4486.2144-.7554.6194-.307.3812-.307 1.0246 0 1.1913.7556 1.6677.7553.4528 2.0537.4528zm-.1889-11.103q1.3219 0 2.219.3574.9207.3336 1.4635.977.5666.6194.8027 1.5009.236.8577.236 1.906v7.7435q-.2833.0477-.8026.143-.4957.0715-1.1331.143-.6373.0715-1.3927.119-.7318.0714-1.4636.0714-1.0387 0-1.9122-.2144t-1.5108-.667q-.6373-.4766-.9913-1.239-.3542-.7625-.3542-1.8345 0-1.0247.4013-1.7632.425-.7386 1.133-1.1913.7083-.4527 1.6526-.6672.9442-.2143 1.9828-.2143.3306 0 .6846.0476.3542.0238.661.0953.3305.0476.5666.0954.236.0476.3305.0715v-.6196q0-.548-.118-1.0721-.1181-.548-.425-.953-.3069-.429-.8498-.6671-.5193-.2622-1.3692-.2622-1.0859 0-1.9121.1667-.8026.1431-1.204.3099l-.2595-1.8346q.4248-.1907 1.4164-.3574.9914-.1906 2.148-.1906zm8.3444.6672q.7555-.1906 2.0066-.4051 1.2512-.2144 2.88-.2144 1.4635 0 2.4314.4289.9678.405 1.5344 1.1674.5902.7386.8262 1.787.236 1.0483.236 2.311v6.9572h-2.1953v-6.4806q0-1.1437-.1653-1.9537-.1416-.81-.4957-1.3105-.354-.5003-.9442-.7148-.5902-.2382-1.4636-.2382-.3541 0-.7318.0238t-.7318.0716q-.3305.0238-.6137.0713-.2597.0477-.3778.0715v10.4595h-2.1953zm27.5176 5.8611q0-2.168-1.0623-3.3356-1.0623-1.1674-2.8327-1.1674-.9914 0-1.558.0715-.543.0714-.8735.1667v7.815q.4013.3335 1.1567.6432.7555.3097 1.6525.3097.9442 0 1.6052-.3335.6846-.3574 1.1095-.953.425-.6195.6138-1.4296.1888-.8339.1888-1.7869zm2.2899 0q0 1.4057-.3778 2.597-.354 1.1913-1.0623 2.049-.7082.8578-1.7469 1.3342-1.015.4766-2.337.4766-1.0623 0-1.8884-.2859-.8027-.2859-1.204-.5479v4.9557h-2.1954v-16.416q.779-.1906 1.9358-.4051 1.1803-.2382 2.7147-.2382 1.4164 0 2.5494.4527 1.1332.4527 1.9357 1.2865.8027.834 1.2276 2.049.4486 1.1914.4486 2.6924zm7.267 4.5747q.779 0 1.369-.0239.614-.0477 1.0152-.143v-3.693q-.236-.1191-.779-.1906-.5193-.0954-1.2747-.0954-.4957 0-1.0624.0716-.5429.0714-1.015.3098-.4485.2144-.7555.6194-.3068.3812-.3068 1.0246 0 1.1913.7555 1.6677.7553.4528 2.0536.4528zm-.1889-11.103q1.3219 0 2.219.3574.9207.3336 1.4636.977.5666.6194.8026 1.5009.236.8577.236 1.906v7.7435q-.2832.0477-.8026.143-.4957.0715-1.133.143-.6375.0715-1.3929.119-.7318.0714-1.4635.0714-1.0387 0-1.9121-.2144t-1.5108-.667q-.6374-.4766-.9915-1.239-.354-.7625-.354-1.8345 0-1.0247.4012-1.7632.425-.7386 1.1331-1.1913.7083-.4527 1.6525-.6672.9442-.2143 1.9829-.2143.3304 0 .6846.0476.354.0238.661.0953.3304.0476.5665.0954.2361.0476.3305.0715v-.6196q0-.548-.118-1.0721-.118-.548-.425-.953-.3068-.429-.8498-.6671-.5194-.2622-1.3691-.2622-1.086 0-1.9121.1667-.8026.1431-1.204.3099l-.2597-1.8346q.425-.1907 1.4165-.3574.9914-.1906 2.1481-.1906zm11.2008 11.103q1.3456 0 1.983-.3575.6608-.3573.6608-1.1436 0-.8101-.6372-1.2866-.6374-.4765-2.101-1.0722-.7082-.2859-1.3692-.5718-.6373-.3097-1.1094-.7148-.4722-.405-.7555-.9768-.2832-.5719-.2832-1.4058 0-1.644 1.2039-2.597 1.2039-.9768 3.2813-.9768.5192 0 1.0386.0715.5193.0476.9678.1429.4486.0716.7791.1667.354.0955.543.1668l-.4013 1.9061q-.3542-.1906-1.1096-.3812-.7554-.2144-1.8176-.2144-.9208 0-1.6053.3812-.6845.3574-.6845 1.1437 0 .405.1415.7147.1653.3097.4722.5718.3305.2383.8026.4527.4721.2145 1.1332.4527.8734.3336 1.558.6671.6845.3098 1.1566.7387.4958.4288.7554 1.0483.2597.5957.2597 1.4772 0 1.7155-1.2747 2.597-1.2512.8815-3.5882.8815-1.6288 0-2.5495-.2858-.9207-.2622-1.2511-.405l.4013-1.9061q.3777.143 1.2039.429.8262.2858 2.1954.2858zm10.5122 0q1.3456 0 1.983-.3575.6608-.3573.6608-1.1436 0-.8101-.6373-1.2866-.6373-.4765-2.101-1.0722-.7082-.2859-1.369-.5718-.6374-.3097-1.1096-.7148-.4721-.405-.7554-.9768-.2832-.5719-.2832-1.4058 0-1.644 1.2039-2.597 1.204-.9768 3.2813-.9768.5193 0 1.0386.0715.5193.0476.9679.1429.4485.0716.779.1667.354.0955.543.1668l-.4014 1.9061q-.354-.1906-1.1095-.3812-.7555-.2144-1.8176-.2144-.9208 0-1.6053.3812-.6846.3574-.6846 1.1437 0 .405.1416.7147.1653.3097.4721.5718.3305.2383.8027.4527.4721.2145 1.133.4527.8735.3336 1.5581.6671.6846.3098 1.1567.7387.4958.4288.7555 1.0483.2596.5957.2596 1.4772 0 1.7155-1.2747 2.597-1.2512.8815-3.5882.8815-1.6288 0-2.5494-.2858-.9208-.2622-1.2512-.405l.4013-1.9061q.3776.143 1.204.429.826.2858 2.1953.2858zm9.8512 1.5962h-2.1954v-12.3894h2.1954zm-1.1095-14.629q-.5902 0-1.015-.3813-.4014-.405-.4014-1.0722 0-.667.4014-1.0483.4249-.405 1.015-.405t.9914.405q.425.3813.425 1.0483 0 .6671-.425 1.0722-.4012.3813-.9914.3813zm15.7432 8.4343q0 1.4772-.425 2.6685-.4249 1.1913-1.2039 2.049-.7554.8578-1.8176 1.3343-1.0623.4527-2.3135.4527-1.251 0-2.3134-.4527-1.0622-.4765-1.8412-1.3342-.7555-.8578-1.1803-2.049-.425-1.1914-.425-2.6686 0-1.4534.425-2.6447.4248-1.2151 1.1803-2.0728.779-.8577 1.8412-1.3104 1.0623-.4765 2.3134-.4765 1.2512 0 2.3135.4765 1.0622.4527 1.8176 1.3103.779.8578 1.204 2.0729.425 1.1913.425 2.6447zm-2.2898 0q0-2.0967-.9443-3.3118-.9206-1.2389-2.5259-1.2389-1.6051 0-2.5495 1.239-.9206 1.215-.9206 3.3117 0 2.0967.9207 3.3356.9443 1.2151 2.5494 1.2151 1.6053 0 2.5259-1.215.9443-1.239.9443-3.3357zm5.3785-5.8373q.7554-.1906 2.0065-.4051 1.2512-.2144 2.88-.2144 1.4636 0 2.4315.4289.9678.405 1.5344 1.1674.5902.7386.8261 1.787.2361 1.0483.2361 2.311v6.9572h-2.1953v-6.4806q0-1.1437-.1652-1.9537-.1418-.81-.4957-1.3105-.3542-.5003-.9443-.7148-.5903-.2382-1.4636-.2382-.3541 0-.7318.0238-.3778.0238-.7319.0716-.3304.0238-.6137.0713-.2597.0477-.3778.0715v10.4595h-2.1953zm16.1047 0q0 2.0013-.1417 3.6453-.1416 1.6202-.3541 3.2404h-1.3692q-.2124-1.6202-.354-3.2404-.1417-1.644-.1417-3.6453v-4.4793h2.3607zm.4012 10.7455q0 .6433-.4248 1.1198-.425.4765-1.1567.4765-.7318 0-1.1567-.4765-.425-.4765-.425-1.12 0-.6432.425-1.1197.4249-.4765 1.1567-.4765t1.1566.4765q.425.4765.425 1.1199z" style="text-align:center" aria-label="It's Garfield.com, but made with Garf fan passion!" font-weight="400" font-size="23.7159" font-family="Ubuntu" letter-spacing="0" word-spacing="0" text-anchor="middle"/></g><path d="M289.3464 161.5588c49.9606 2.5317 72.837-6.3405 97.1202-14.6203" fill="none" stroke="#000"/><path d="M33.2295 273.9508H569.333v31.0142H33.2295z" fill="#670000"/><g style="line-height:1.25;-inkscape-font-specification:'cooper black, '"><path style="line-height:2" d="M580.2662 265.4222v35.0697q0 2.996.2304 3.8411.269.845 1.4213 1.6517 1.3828.9603 1.8437 1.6901.4994.7298.4994 1.767 0 3.0729-6.1843 4.6861-5.5696 1.4213-11.1393 1.4213-1.2292 0-1.6133-.3841-.3457-.3457-.461-1.7286-.192-1.959-1.3827-1.959-.653 0-2.0358 1.1524-3.918 3.1881-8.7194 3.1881-5.9538 0-10.7168-4.4173-2.804-2.6504-4.5326-6.1074-2.3047-4.4941-2.3047-9.1035 0-5.416 2.9961-10.448 2.7656-4.6477 7.5287-7.1445 3.9948-2.0742 7.8743-2.0742 4.4557 0 7.9896 1.9974.5762.3073.9219.3073 1.2291 0 1.2291-3.3034 0-1.4212-.6914-2.151-.653-.7682-2.3815-1.306-2.4199-.7682-2.4199-2.6888 0-2.804 5.5697-4.379 9.8333-2.7271 13.175-2.7271 3.3035 0 3.3035 3.1497zm-20.8574 19.321q-2.4968 0-3.9564 2.6504-1.959 3.5338-1.959 9.2956 0 5.224 1.8821 7.8743 1.3444 1.9206 3.6491 1.9206 2.4968 0 3.6107-2.8809 1.1524-2.9193 1.1524-9.3724 0-5.9154-1.3444-7.8743-1.0372-1.5365-3.0345-1.6133zm-29.5844-.4225v12.33q0 8.1817.2304 9.526.269 1.3445 1.9206 2.0743 1.4212.6146 1.8822 1.1523.4993.5378.4993 1.5365 0 1.2676-.9218 2.3047-.8835 1.0371-2.3816 1.4596-2.7656.845-9.334.845-7.4134 0-10.4094-1.1139-1.3829-.4993-2.2663-1.5364-.8835-1.0755-.8835-2.2279 0-.9219.461-1.4212.4993-.4993 2.1126-1.1908 1.498-.653 1.8437-3.5722.6146-4.9935.6146-14.2123 0-9.3724-.5377-12.0612-.5378-2.6888-2.6888-3.9948-1.6133-.9218-2.228-1.7285-.576-.845-.576-2.0358 0-1.8821 1.8053-3.265 1.8053-1.4212 5.7617-2.612 2.6504-.8066 6.8756-1.5364 4.2253-.7298 6.1459-.7298 3.0345 0 3.0345 3.7643 0 1.2292-.3841 5.6465-.4994 6.8757-.5762 12.599zm-26.9725 13.252h-18.0533q-1.1908 0-1.1908 1.037 0 2.4968 2.6888 4.7246 2.7272 2.1895 5.8386 2.1895 1.8437 0 4.0716-.6914 2.2662-.7298 3.7259-1.767 1.306-.9218 2.0742-.9218.9987 0 1.959 1.2291.9603 1.2292.9603 2.5352 0 2.7656-3.457 5.3392-6.1075 4.571-14.097 4.571-8.0665 0-13.5209-4.6862-2.6504-2.3047-4.379-5.5697-2.2662-4.3405-2.2662-9.142 0-6.453 3.918-11.6002 3.3802-4.4557 8.6041-6.6452 3.918-1.6517 8.489-1.6517 7.2982 0 12.4069 4.1485 2.5736 2.0742 4.1484 4.9166 1.8054 3.2266 1.8054 6.2995 0 2.4968-1.0372 4.11-1.037 1.575-2.6888 1.575zm-17.0546-7.183h3.8795q2.4584 0 2.4584-2.2663 0-2.0742-1.1908-3.3802t-3.1113-1.306q-2.151 0-3.3802 1.6901-1.1524 1.5749-1.1524 3.1882 0 1.1523.5378 1.6132.5761.461 1.959.461zm-23.9956-11.2162v22.317q0 2.6505.461 3.8796.4993 1.2292 1.959 2.2663 1.1907.845 1.5748 1.4597.4226.5761.4226 1.498 0 4.955-12.5606 4.955-6.7604 0-10.7168-1.0755-1.3444-.384-2.1894-1.3443-.8067-.9603-.8067-2.1895 0-1.0371.4225-1.6133.4226-.5761 2.151-1.8437 1.1908-.8835 1.6902-2.8809.4993-1.9974.4993-5.9538 0-1.2675-.192-4.7246-.1537-3.4954-.2305-4.0716-.2305-1.5749-2.151-2.42-2.3815-1.037-2.3815-3.0728 0-2.42 3.1113-3.6107 4.302-1.6517 9.2187-2.804 4.9167-1.1524 7.6055-1.1524 2.1126 0 2.1126 2.3815zm-7.6054-16.8242q3.3418 0 5.3007 1.2676 1.959 1.2291 1.959 3.3418 0 2.9577-2.9577 4.6862-4.6861 2.7272-11.3313 2.7272-2.804 0-4.4558-1.0755-2.2278-1.3829-2.2278-3.8412 0-3.3034 4.7246-5.1855 4.8014-1.9206 8.9883-1.9206zm-23.6691 21.3184h4.763q1.1908 0 1.6901.384.5378.3458.461 1.1908l-.3073 4.571q-.0768 1.3828-.4226 1.767-.3457.3456-1.5364.3456-.2689 0-1.2676-.0768-.6914-.0384-1.1523-.0384-1.6133 0-2.1895 1.0755-.5762 1.0372-.5762 3.9948 0 4.0332.8835 6.7989.3457 1.1907.9987 1.7669.653.5378 2.151.9603 3.3803.9987 3.3803 3.7259 0 2.8809-3.9564 4.1484-3.918 1.2676-12.9063 1.2676-13.3288 0-13.3288-5.3008 0-1.306.5378-1.9205.5762-.6146 2.4583-1.4213 2.0358-.9218 2.4584-3.4186.653-3.7643.653-8.0664 0-1.9206-.6914-2.6504-.653-.7682-2.42-.7298-2.0742 0-2.6504-.192-.5761-.2305-.5377-1.0372l.3073-4.8398q.0768-1.1908.3841-1.4597.3457-.3072 1.8437-.384 1.4213-.0769 1.4213-1.3829 0-.5377-1.0371-2.4583-1.767-3.1882-1.767-6.3763 0-4.6862 3.2266-7.6439 4.7246-4.3405 13.5592-4.3405 7.2598 0 11.6003 3.4186 3.3418 2.6504 3.3418 6.1075 0 2.4967-1.6517 4.2252-1.6517 1.6901-4.11 1.6901-2.7656 0-5.3008-1.9206-.6146-.4993-2.9193-3.0345-1.6517-1.7669-3.3034-1.7669-1.0755 0-1.8437.7682-.7682.7683-.7682 1.8822 0 3.0345 5.7617 6.4915 1.767 1.0756 2.3815 1.6901.653.6146 1.1523 1.7286.269.4609 1.2292.4609zm-46.0821-6.9141q2.0358 0 2.4583.5762.461.5761.8067 3.6875.192 1.69 1.1907 1.69.7683 0 1.4597-1.1139 3.0729-4.8014 8.028-4.8014 3.4954 0 5.7233 2.2663 1.0755 1.114 1.7669 2.8808.6914 1.7286.6914 3.3418 0 1.8054-.845 3.726-.8451 1.8821-2.1895 3.1113-2.4583 2.343-6.0306 2.343-1.959 0-3.3034-.6913-1.306-.6914-3.457-2.804-.8067-.8067-1.498-.8067-1.0756 0-1.4213 1.2292-.3073 1.1907-.3073 5.0703 0 5.8001.4225 7.9127.269 1.1524.7299 1.6133.4993.4225 2.0742.8835 3.457 1.037 3.457 3.6107 0 1.5748-1.114 2.7656-1.1139 1.1523-2.9576 1.5364-3.6875.7683-10.832.7683-6.7989 0-10.3327-1.1908-3.1498-1.0755-3.1498-3.7259 0-1.9974 2.3047-3.5723 1.114-.7298 1.5365-1.306.4225-.6145.5762-1.6516.6145-3.4955.6145-12.9447 0-1.7285-.384-2.4583-.3842-.7683-1.5365-1.2292-2.7272-1.0755-2.7272-3.1113 0-1.8438 1.8821-3.1498 1.8822-1.3444 6.2995-2.6504 5.9154-1.7669 10.0638-1.8053zm-39.3025-.2689q6.6836 0 11.3314 3.3802 2.4583 1.8054 3.4186 4.1485.9987 2.3046.9987 6.3763l-.0768 5.7233q0 5.9537.845 7.7207.4226.845.8067 1.0755.384.2305 1.6133.4225 1.2291.192 1.2291 1.6133 0 1.8438-1.498 3.8411-1.4597 1.9974-3.8028 3.3418-2.8808 1.6901-6.0306 1.6901-4.0332 0-6.3763-2.7656-.8066-.9987-1.498-.9987-.7682 0-2.0358.9603-3.8412 2.804-8.7194 2.804-5.032 0-8.1432-2.151-2.0359-1.4212-3.2266-3.6875-1.1908-2.3047-1.1908-4.8014 0-3.9948 3.2266-7.0677 5.0319-4.8399 15.0573-4.8783 2.2279 0 2.804-.4225.5762-.461.5762-2.0742 0-4.0716-.845-5.877-.8451-1.8437-2.7657-1.8437-1.1523 0-2.0742.6914-.8835.6914-2.2279 2.5351-3.4186 4.8783-7.1445 4.8783-1.8822 0-3.0729-1.114-1.1908-1.1139-1.1908-2.9192 0-1.8438 1.4597-3.6875 1.498-1.8438 4.0332-3.2266 6.9524-3.6875 14.5195-3.6875zm-2.5736 22.2402q-1.69 0-2.9577 1.3829-1.2291 1.3828-1.2291 3.3033 0 1.8438.8834 2.9961.8835 1.114 2.3431 1.114 3.073 0 3.073-5.1856 0-2.1126-.461-2.8424-.4225-.7298-1.6517-.7683zm-51.018-37.4511q5.032 0 9.4876 1.4212 1.9974.653 2.7273.653.7682 0 3.2265-.8835.8067-.2689 1.6517-.2689 2.151 0 4.11 2.5352 3.1498 4.0716 3.1498 8.9115 0 3.3034-1.6901 5.3392-1.6517 2.0358-4.379 2.0358-2.2278 0-4.3788-1.6133-.653-.4994-3.1882-3.6107-4.2252-5.1855-9.718-5.1855-4.9936 0-7.9513 3.649-2.9192 3.6491-2.9192 9.8334 0 9.1803 4.6862 15.6335 1.7669 2.343 4.2252 3.7643 2.4584 1.3828 4.8783 1.3828 1.9974 0 3.265-1.306 1.306-1.3444 1.306-3.4186 0-1.8438-1.0756-2.612-.4225-.3073-.8066-.3457-.3457-.0768-2.1895-.0768-1.6517 0-2.7656-1.0371-1.0755-1.0755-1.0755-2.6888 0-3.1882 4.2252-4.5326 4.6478-1.4596 10.7168-1.4596 6.4916 0 10.9089 1.3444 4.1868 1.306 4.1868 4.7246 0 1.3828-.9602 2.42-.9603.9986-2.4968 1.1907-1.3444.192-1.767.6146-.384.384-.8066 1.959-1.6516 6.1074-6.453 10.2174-3.3035 2.804-7.9897 4.379-4.6477 1.5748-9.7949 1.5748-8.412 0-15.4414-3.8796-7.2213-3.9564-10.9857-11.0625-3.1497-5.9153-3.1497-12.791 0-6.9525 3.7643-13.2135 3.9948-6.722 11.1778-10.3711 6.261-3.2266 14.289-3.2266zm-52.516 15.4798q2.0358 0 2.4583.5762.461.5761.8066 3.6875.1921 1.69 1.1908 1.69.7682 0 1.4596-1.1139 3.073-4.8014 8.028-4.8014 3.4955 0 5.7233 2.2663 1.0756 1.114 1.767 2.8808.6914 1.7286.6914 3.3418 0 1.8054-.845 3.726-.8451 1.8821-2.1895 3.1113-2.4584 2.343-6.0306 2.343-1.959 0-3.3034-.6913-1.306-.6914-3.457-2.804-.8067-.8067-1.498-.8067-1.0756 0-1.4213 1.2292-.3073 1.1907-.3073 5.0703 0 5.8001.4225 7.9127.2689 1.1524.7298 1.6133.4994.4225 2.0743.8835 3.457 1.037 3.457 3.6107 0 1.5748-1.114 2.7656-1.1139 1.1523-2.9576 1.5364-3.6875.7683-10.832.7683-6.7989 0-10.3327-1.1908-3.1498-1.0755-3.1498-3.7259 0-1.9974 2.3047-3.5723 1.114-.7298 1.5365-1.306.4225-.6145.5761-1.6516.6146-3.4955.6146-12.9447 0-1.7285-.3841-2.4583-.3841-.7683-1.5365-1.2292-2.7272-1.0755-2.7272-3.1113 0-1.8438 1.8822-3.1498 1.8821-1.3444 6.2995-2.6504 5.9153-1.7669 10.0638-1.8053zm-22.92 20.819h-18.0534q-1.1908 0-1.1908 1.0371 0 2.4968 2.6888 4.7246 2.7272 2.1895 5.8386 2.1895 1.8437 0 4.0716-.6914 2.2663-.7298 3.7259-1.767 1.306-.9218 2.0742-.9218.9987 0 1.959 1.2291.9603 1.2292.9603 2.5352 0 2.7656-3.457 5.3392-6.1075 4.571-14.097 4.571-8.0665 0-13.5209-4.6862-2.6504-2.3047-4.3789-5.5697-2.2663-4.3405-2.2663-9.142 0-6.453 3.918-11.6002 3.3802-4.4557 8.6042-6.6452 3.918-1.6517 8.4889-1.6517 7.2982 0 12.4069 4.1485 2.5736 2.0742 4.1484 4.9166 1.8054 3.2266 1.8054 6.2995 0 2.4968-1.0371 4.11-1.0371 1.575-2.6888 1.575zm-17.0547-7.183h3.8795q2.4584 0 2.4584-2.2662 0-2.0742-1.1908-3.3802-1.1907-1.306-3.1113-1.306-2.151 0-3.3802 1.6901-1.1524 1.5749-1.1524 3.1881 0 1.1524.5378 1.6133.5762.461 1.959.461zm-30.2182-3.8027V299.57q0 2.3047 1.114 3.7643 1.1523 1.4597 2.9192 1.4597 1.498 0 3.9564-1.3829.5761-.3457 1.1523-.3457.9219 0 1.6901 1.114.7682 1.114.7682 2.4199 0 2.3815-2.612 4.571-5.4544 4.6477-13.2135 4.6477-6.1458 0-9.8717-3.457-3.726-3.4954-3.726-9.1803v-17.7461q0-.8835-.2304-1.0755-.192-.2305-1.0755-.2305h-3.9564q-1.114 0-1.4212-.3457-.3073-.3841-.3073-1.7285v-1.6901q.0384-1.1524.8834-1.6901l17.5925-11.0625q.653-.3457 1.6133-.3457h3.1113q.9603 0 1.2676.461.3457.4224.3457 1.7284v5.1856q0 1.1523.3457 1.498.3841.3457 1.5748.3457h7.1062q1.4212 0 1.8437.5378.4225.4993.4225 2.1894v2.2663q0 1.8438-.5377 2.5736-.5378.6914-1.959.6914h-6.9525q-1.0755 0-1.4596.3841-.3841.3841-.3841 1.4596zm-35.0965 0V299.57q0 2.3047 1.114 3.7643 1.1523 1.4597 2.9192 1.4597 1.498 0 3.9564-1.3829.5762-.3457 1.1524-.3457.9218 0 1.69 1.114.7683 1.114.7683 2.4199 0 2.3815-2.612 4.571-5.4544 4.6477-13.2135 4.6477-6.1459 0-9.8718-3.457-3.7259-3.4954-3.7259-9.1803v-17.7461q0-.8835-.2305-1.0755-.192-.2305-1.0755-.2305h-3.9564q-1.1139 0-1.4212-.3457-.3073-.3841-.3073-1.7285v-1.6901q.0384-1.1524.8835-1.6901l17.5924-11.0625q.653-.3457 1.6133-.3457h3.1113q.9603 0 1.2676.461.3457.4224.3457 1.7284v5.1856q0 1.1523.3457 1.498.3841.3457 1.575.3457h7.106q1.4212 0 1.8438.5378.4225.4993.4225 2.1894v2.2663q0 1.8438-.5378 2.5736-.5377.6914-1.959.6914h-6.9524q-1.0755 0-1.4597.3841-.384.3841-.384 1.4596zm-27.2989 10.9857H88.3933q-1.1907 0-1.1907 1.0371 0 2.4968 2.6888 4.7246 2.7272 2.1895 5.8385 2.1895 1.8438 0 4.0716-.6914 2.2663-.7298 3.726-1.767 1.306-.9218 2.0742-.9218.9987 0 1.959 1.2291.9602 1.2292.9602 2.5352 0 2.7656-3.457 5.3392-6.1074 4.571-14.097 4.571-8.0664 0-13.5208-4.6862-2.6504-2.3047-4.379-5.5697-2.2662-4.3405-2.2662-9.142 0-6.453 3.918-11.6002 3.3802-4.4557 8.6041-6.6452 3.918-1.6517 8.489-1.6517 7.2981 0 12.4068 4.1485 2.5736 2.0742 4.1485 4.9166 1.8053 3.2266 1.8053 6.2995 0 2.4968-1.037 4.11-1.0372 1.575-2.6889 1.575zm-17.0547-7.183h3.8796q2.4583 0 2.4583-2.2662 0-2.0742-1.1907-3.3802-1.1908-1.306-3.1114-1.306-2.151 0-3.3802 1.6901-1.1523 1.5749-1.1523 3.1881 0 1.1524.5377 1.6133.5762.461 1.959.461zm-52.6697 24.353l-5.1471.0383q-5.416.0768-7.9128.2305-2.2278.192-3.1881.192-2.3431 0-3.726-1.1907-1.3443-1.1907-1.3443-2.8424 0-1.0756.4993-1.6901.4994-.6146 2.42-1.9206 1.1139-.7682 1.5364-2.3815.4225-1.6517.9219-7.0293.7298-8.3737.7298-20.627 0-4.4941-.6146-5.9538-.5762-1.498-2.7656-2.4583-2.5352-1.0755-2.5352-3.1497 0-1.6901 1.498-2.7657 1.5365-1.0755 3.918-1.0755 1.306 0 3.3418.1153 3.3803.1536 7.2982.1536 2.8809 0 11.3314-.2305 2.6504-.0768 4.8014-.0768 5.1088 0 8.22.845 3.1498.8067 5.4545 2.7657 3.7643 3.1882 3.7643 8.5274 0 2.6503-1.1139 5.1855-1.114 2.4967-2.996 3.9948-1.3445 1.0755-1.3445 1.959 0 .9603 1.6133 1.6133 3.1497 1.2675 5.7233 4.2636 2.6504 3.1114 2.6504 7.7976 0 5.5312-4.0332 10.1022-5.3392 6.0306-15.7871 6.0306-1.4212 0-6.991-.192-5.0702-.1922-6.2226-.2306zm2.6504-41.6765v7.9128q0 1.8821.461 2.6503.4993.7683 1.69.7683 2.8425 0 4.187-1.7285 1.3443-1.767 1.3443-5.4929 0-3.6106-1.3828-5.5696-1.3828-1.9974-3.918-1.9974-1.3444 0-1.8821.7682-.4994.7298-.4994 2.6888zm0 22.125v3.649q0 5.032.7298 6.6837.7299 1.6517 2.9577 1.6517 5.8386 0 5.8386-6.8373 0-8.5273-6.53-8.5273-1.69 0-2.343.7298t-.653 2.6504z" font-size="78.6667" letter-spacing="-1.26" stroke="#670000" paint-order="stroke fill markers" aria-label="BetterGarfield" font-weight="400" font-family="cooper black" word-spacing="0" fill="url(#c)" stroke-width="18"/></g><g style="line-height:1.25"><path d="M598.9944 303.8902q.3853-.2493 1.156-.5213.7933-.272 1.8133-.272 1.2694 0 2.244.4533.9974.4534 1.6774 1.2694.68.816 1.02 1.9493.3626 1.1334.3626 2.4934 0 1.428-.4306 2.584-.408 1.1333-1.1787 1.9266-.7707.7934-1.8587 1.224-1.088.4307-2.448.4307-1.4733 0-2.6066-.204-1.1334-.204-1.8587-.408v-16.8867l2.108-.3626zm0 9.4294q.3173.0907.884.1813.5893.068 1.4507.068 1.7 0 2.72-1.1107 1.02-1.1333 1.02-3.196 0-.9066-.1814-1.7-.1813-.7933-.5893-1.36-.408-.5893-1.0653-.9066-.6347-.34-1.5414-.34-.8613 0-1.5866.2946-.7254.2947-1.1107.612zm9.5692 4.0346q.2494.1134.6347.204.408.1134.7933.1134 1.2467 0 1.9494-.5667.7026-.544 1.2693-1.7906-1.428-2.72-2.6747-5.7574-1.224-3.06-2.04-6.188h2.2667q.2493 1.02.5893 2.1987.3627 1.1786.7934 2.4253.4306 1.2467.9293 2.4933.4987 1.2467 1.0427 2.4027.8613-2.38 1.496-4.7146.6346-2.3347 1.2013-4.8054h2.176q-.816 3.332-1.8133 6.4147-.9974 3.06-2.1534 5.7347-.4533 1.02-.952 1.7453-.476.748-1.0653 1.224-.5893.476-1.3373.7027-.7254.2266-1.6547.2266-.2494 0-.5214-.0453-.272-.0227-.544-.0907-.2493-.0453-.476-.1133-.204-.068-.2946-.1134z" style="-inkscape-font-specification:Ubuntu" font-size="22.6667" font-family="Ubuntu" aria-label="by" font-weight="400" letter-spacing="0" word-spacing="0"/></g><g style="line-height:1.25"><path d="M648.2263 315.4073q-12.6186 0-19.264-7.0187-6.5706-7.0186-6.5706-19.936 0-6.4213 2.016-11.424 2.016-5.0773 5.5253-8.512 3.5093-3.5093 8.3627-5.3013 4.8533-1.792 10.528-1.792 3.2853 0 5.9733.5227 2.688.448 4.704 1.12 2.016.5973 3.36 1.2693 1.344.672 1.9413 1.0453l-3.36 9.408q-2.3893-1.2693-5.6-2.1653-3.136-.896-7.168-.896-2.688 0-5.3013.896-2.5387.896-4.5547 2.912-1.9413 1.9413-3.136 5.0773-1.1946 3.136-1.1946 7.616 0 3.584.7466 6.72.8214 3.0614 2.5387 5.3014 1.792 2.24 4.6293 3.584 2.8374 1.2693 6.8694 1.2693 2.5386 0 4.5546-.2987 2.016-.2986 3.584-.672 1.568-.448 2.7627-.9706 1.1947-.5227 2.1653-.9707l3.2107 9.3333q-2.464 1.4934-6.944 2.688-4.48 1.1947-10.3787 1.1947z" style="-inkscape-font-specification:'Ubuntu Bold'" font-weight="700" font-family="Ubuntu" aria-label="C" font-size="74.6667" letter-spacing="0" word-spacing="0" fill="url(#d)"/></g></svg>
